<?xml version="1.0" encoding="UTF-8"?>
<svg version="1.1" xmlns="http://www.w3.org/2000/svg" width="166" height="44">
<path d="M0 0 C27.06 0 54.12 0 82 0 C73.16856222 8.83143778 73.16856222 8.83143778 68.66532898 9.48101807 C67.39735977 9.47213562 66.12939056 9.46325317 64.82299805 9.45410156 C64.12001083 9.45468567 63.41702362 9.45526978 62.69273376 9.45587158 C60.38188339 9.45309707 58.0723422 9.4220379 55.76171875 9.390625 C54.1546143 9.38316029 52.54750073 9.37746844 50.94038391 9.37347412 C46.72006901 9.35823573 42.50030884 9.31896996 38.2802124 9.2746582 C33.97008772 9.23366641 29.659873 9.2154548 25.34960938 9.1953125 C16.89948563 9.15247346 8.44981191 9.08424453 0 9 C0 6.03 0 3.06 0 0 Z " fill="#FB8F4B" transform="translate(71,30)"/>
<path d="M0 0 C1.98 0 3.96 0 6 0 C6.66 3.3 7.32 6.6 8 10 C8.99 6.7 9.98 3.4 11 0 C12.65 0 14.3 0 16 0 C16.99 3.3 17.98 6.6 19 10 C19.99 6.7 20.98 3.4 22 0 C23.65 0 25.3 0 27 0 C25.87723429 7.05909078 24.62436599 14.03843148 23 21 C21.02 21 19.04 21 17 21 C16.01 18.36 15.02 15.72 14 13 C13.01 15.64 12.02 18.28 11 21 C12.32 21.33 13.64 21.66 15 22 C14.67 22.99 14.34 23.98 14 25 C12.02 24.67 10.04 24.34 8 24 C8 25.98 8 27.96 8 30 C8.33 28.68 8.66 27.36 9 26 C10.98 26 12.96 26 15 26 C14.34 28.31 13.68 30.62 13 33 C6.64 34.32 6.64 34.32 4 33 C2.41089818 29.82179635 3.2046444 27.364966 4 24 C4.66 23.34 5.32 22.68 6 22 C5.34 21.01 4.68 20.02 4 19 C3.40576172 16.9152832 3.40576172 16.9152832 2.9296875 14.55078125 C2.75566406 13.70322266 2.58164063 12.85566406 2.40234375 11.98242188 C2.22832031 11.10134766 2.05429688 10.22027344 1.875 9.3125 C1.69324219 8.41982422 1.51148438 7.52714844 1.32421875 6.60742188 C0.87688591 4.40607343 0.4357236 2.20367051 0 0 Z " fill="#965CBB" transform="translate(10,6)"/>
<path d="M0 0 C2.96858157 2.20740681 3.82865791 3.48597373 5 7 C5.25081126 12.1834327 4.9609173 15.19961822 3 20 C2.42194376 22.26184389 1.88143329 24.53355021 1.375 26.8125 C1.11460938 27.97394531 0.85421875 29.13539062 0.5859375 30.33203125 C0.39257812 31.21246094 0.19921875 32.09289063 0 33 C-3.465 33.495 -3.465 33.495 -7 34 C-8.1875 31.8125 -8.1875 31.8125 -9 29 C-7.9375 26.1875 -7.9375 26.1875 -6 24 C-3.3125 23.6875 -3.3125 23.6875 -1 24 C-1 23.34 -1 22.68 -1 22 C-1.886875 22.103125 -2.77375 22.20625 -3.6875 22.3125 C-7 22 -7 22 -9.8125 20.0625 C-12.66320116 16.07151838 -13.16747975 12.84809816 -13 8 C-11.13611287 0.85509932 -7.35321283 -1.36390238 0 0 Z M-5 4 C-7.48772258 7.2837938 -8.03180444 8.61198583 -7.6875 12.8125 C-7.3471875 14.3903125 -7.3471875 14.3903125 -7 16 C-5.35 16.33 -3.7 16.66 -2 17 C0.23551759 13.64672361 0.17283528 13.09256343 -0.375 9.3125 C-0.48585938 8.50425781 -0.59671875 7.69601563 -0.7109375 6.86328125 C-0.80632813 6.24839844 -0.90171875 5.63351563 -1 5 C-2.32 4.67 -3.64 4.34 -5 4 Z M-5 27 C-5 28.32 -5 29.64 -5 31 C-4.34 31 -3.68 31 -3 31 C-2.67 29.68 -2.34 28.36 -2 27 C-2.99 27 -3.98 27 -5 27 Z " fill="#975DBC" transform="translate(51,6)"/>
<path d="M0 0 C1.98 0 3.96 0 6 0 C8.1171875 2.40625 8.1171875 2.40625 9.875 5.5 C10.47054687 6.5209375 11.06609375 7.541875 11.6796875 8.59375 C12.11539063 9.3878125 12.55109375 10.181875 13 11 C13.33 7.37 13.66 3.74 14 0 C15.32 0 16.64 0 18 0 C18 6.93 18 13.86 18 21 C16.35 21 14.7 21 13 21 C10.98046875 18.59375 10.98046875 18.59375 9.1875 15.5 C8.58292969 14.4790625 7.97835937 13.458125 7.35546875 12.40625 C6.90816406 11.6121875 6.46085938 10.818125 6 10 C5.67 13.63 5.34 17.26 5 21 C3.35 21 1.7 21 0 21 C0 14.07 0 7.14 0 0 Z " fill="#DC681D" transform="translate(135,6)"/>
<path d="M0 0 C1.65 0 3.3 0 5 0 C5 2.64 5 5.28 5 8 C7.64 8 10.28 8 13 8 C13 5.36 13 2.72 13 0 C14.65 0 16.3 0 18 0 C18 6.93 18 13.86 18 21 C16.35 21 14.7 21 13 21 C13 18.03 13 15.06 13 12 C10.36 12 7.72 12 5 12 C5 14.97 5 17.94 5 21 C3.35 21 1.7 21 0 21 C0 14.07 0 7.14 0 0 Z " fill="#E8AE27" transform="translate(93,6)"/>
<path d="M0 0 C1.98 0 3.96 0 6 0 C9.07836721 6.94395046 11.62820313 13.51747162 13 21 C11.35 21 9.7 21 8 21 C7.67 19.68 7.34 18.36 7 17 C4.36 17 1.72 17 -1 17 C-1.33 18.32 -1.66 19.64 -2 21 C-3.65 21 -5.3 21 -7 21 C-4.96192707 13.8821847 -2.59655258 6.93292719 0 0 Z M3 7 C2.34 8.65 1.68 10.3 1 12 C2.32 12 3.64 12 5 12 C4.67 10.35 4.34 8.7 4 7 C3.67 7 3.34 7 3 7 Z " fill="#D7651D" transform="translate(120,6)"/>
<path d="M0 0 C2.5625 1.3125 2.5625 1.3125 4 3 C4 3.99 4 4.98 4 6 C2.1875 6.625 2.1875 6.625 0 7 C-0.99 6.34 -1.98 5.68 -3 5 C-5.78855122 5.39571756 -5.78855122 5.39571756 -8 7 C-8.30523962 11.65088715 -8.30523962 11.65088715 -7 16 C-4.58380177 16.25030977 -4.58380177 16.25030977 -2 16 C-1.34 15.01 -0.68 14.02 0 13 C1.32 13.66 2.64 14.32 4 15 C3.75 17.375 3.75 17.375 3 20 C-0.68710226 22.43903446 -3.6378822 22.21359654 -7.87109375 21.5859375 C-10 21 -10 21 -12.5625 19.0625 C-14.59363832 14.73529227 -14.65833346 10.70784973 -14 6 C-11.44454645 -0.67522679 -6.33051846 -0.75417729 0 0 Z " fill="#DFA825" transform="translate(86,6)"/>
<path d="M0 0 C13.86 0 27.72 0 42 0 C37 5 37 5 34.99406433 5.60127258 C34.34786636 5.59016953 33.7016684 5.57906647 33.03588867 5.56762695 C32.2954985 5.5672493 31.55510834 5.56687164 30.7922821 5.56648254 C30.0087587 5.54067612 29.22523529 5.51486969 28.41796875 5.48828125 C27.19670036 5.47766914 27.19670036 5.47766914 25.95075989 5.46684265 C23.36205357 5.43895598 20.77554727 5.37623316 18.1875 5.3125 C16.42776572 5.2874095 14.66799737 5.26459764 12.90820312 5.24414062 C8.60462704 5.18914872 4.3026859 5.10291992 0 5 C0 3.35 0 1.7 0 0 Z " fill="#FFE686" transform="translate(73,32)"/>
<path d="M0 0 C14.85 0 29.7 0 45 0 C44.67 0.99 44.34 1.98 44 3 C30.14 2.67 16.28 2.34 2 2 C2 3.65 2 5.3 2 7 C13.88 7 25.76 7 38 7 C38 7.33 38 7.66 38 8 C25.46 8 12.92 8 0 8 C0 5.36 0 2.72 0 0 Z " fill="#FFA45A" transform="translate(71,30)"/>
<path d="M0 0 C0 6.93 0 13.86 0 21 C-1.65 21 -3.3 21 -5 21 C-5.33 16.71 -5.66 12.42 -6 8 C-7.32 8 -8.64 8 -10 8 C-10.33 6.68 -10.66 5.36 -11 4 C-6.85299144 0.09693312 -6.17456556 0 0 0 Z " fill="#995EBE" transform="translate(69,6)"/>
<path d="M0 0 C5.28 0 10.56 0 16 0 C15.67 2.97 15.34 5.94 15 9 C11.625 9.625 11.625 9.625 8 10 C6 8 6 8 5.875 5.375 C5.91625 4.59125 5.9575 3.8075 6 3 C5.01 3 4.02 3 3 3 C2.67 4.98 2.34 6.96 2 9 C1.01 9 0.02 9 -1 9 C-0.67 6.03 -0.34 3.06 0 0 Z M10 3 C10 4.32 10 5.64 10 7 C10.66 6.67 11.32 6.34 12 6 C12 5.01 12 4.02 12 3 C11.34 3 10.68 3 10 3 Z " fill="#0490A9" transform="translate(26,30)"/>
<path d="M0 0 C0 1.32 0 2.64 0 4 C-2.97 3.505 -2.97 3.505 -6 3 C-6 4.98 -6 6.96 -6 9 C-5.67 7.68 -5.34 6.36 -5 5 C-3.02 5 -1.04 5 1 5 C0.34 7.31 -0.32 9.62 -1 12 C-7.36 13.32 -7.36 13.32 -10 12 C-11.6073824 8.7852352 -10.84967583 6.39870334 -10 3 C-7.66105586 -1.02818157 -4.27037442 -0.24171931 0 0 Z " fill="#03839B" transform="translate(24,27)"/>
<path d="M0 0 C-0.99 4.29 -1.98 8.58 -3 13 C-5.31 13.33 -7.62 13.66 -10 14 C-11.1875 11.8125 -11.1875 11.8125 -12 9 C-10.9375 6.1875 -10.9375 6.1875 -9 4 C-6.3125 3.6875 -6.3125 3.6875 -4 4 C-4 3.01 -4 2.02 -4 1 C-2 0 -2 0 0 0 Z M-8 7 C-8 8.32 -8 9.64 -8 11 C-7.34 11 -6.68 11 -6 11 C-5.67 9.68 -5.34 8.36 -5 7 C-5.99 7 -6.98 7 -8 7 Z " fill="#048FA9" transform="translate(54,26)"/>
<path d="M0 0 C0.94875 0.04125 1.8975 0.0825 2.875 0.125 C3.98344919 3.45034757 3.71954356 5.74682575 2.875 9.125 C-0 9.75 -0 9.75 -3.125 10.125 C-5.125 8.125 -5.125 8.125 -5.375 5.125 C-5.02345647 0.90647769 -4.22997422 0.16919897 0 0 Z " fill="#038CA5" transform="translate(58.125,29.875)"/>
<path d="M0 0 C1.98 0 3.96 0 6 0 C6 0.99 6 1.98 6 3 C5.01 3.33 4.02 3.66 3 4 C1.78130071 6.50447516 1.78130071 6.50447516 1 9 C0.01 9 -0.98 9 -2 9 C-1.34 6.03 -0.68 3.06 0 0 Z " fill="#048EA7" transform="translate(64,30)"/>
<path d="M0 0 C1.98 0 3.96 0 6 0 C5.34 2.31 4.68 4.62 4 7 C3.01 6.67 2.02 6.34 1 6 C1.33 4.68 1.66 3.36 2 2 C1.34 2 0.68 2 0 2 C0 1.34 0 0.68 0 0 Z " fill="#038CA5" transform="translate(19,32)"/>
</svg>
