<svg xmlns="http://www.w3.org/2000/svg" xmlns:xlink="http://www.w3.org/1999/xlink" width="500" zoomAndPan="magnify" viewBox="0 0 375 374.999991" height="500" preserveAspectRatio="xMidYMid meet" version="1.0"><defs><g/><clipPath id="f5c6a6fc0d"><path d="M 33.46875 37.5 L 91.40625 37.5 L 91.40625 124.40625 L 33.46875 124.40625 Z M 33.46875 37.5 " clip-rule="nonzero"/></clipPath><clipPath id="271b08ba3b"><path d="M 62.5 37.5 L 33.46875 37.5 L 62.378906 124.222656 L 91.40625 124.222656 Z M 62.5 37.5 " clip-rule="nonzero"/></clipPath><clipPath id="c4f19f08b5"><path d="M 182.121094 37.5 L 268.839844 37.5 L 268.839844 124.21875 L 182.121094 124.21875 Z M 182.121094 37.5 " clip-rule="nonzero"/></clipPath><clipPath id="9bcec51b46"><path d="M 225.480469 37.5 C 201.535156 37.5 182.121094 56.914062 182.121094 80.859375 C 182.121094 104.804688 201.535156 124.21875 225.480469 124.21875 C 249.425781 124.21875 268.839844 104.804688 268.839844 80.859375 C 268.839844 56.914062 249.425781 37.5 225.480469 37.5 Z M 225.480469 37.5 " clip-rule="nonzero"/></clipPath><clipPath id="0e34ecbf0a"><path d="M 294.34375 37.5 L 326.957031 37.5 L 326.957031 124.222656 L 294.34375 124.222656 Z M 294.34375 37.5 " clip-rule="nonzero"/></clipPath><clipPath id="faab4d37e0"><path d="M 283.800781 37.5 L 337.5 37.5 L 337.5 57.898438 L 283.800781 57.898438 Z M 283.800781 37.5 " clip-rule="nonzero"/></clipPath><clipPath id="ae5efd6864"><path d="M 283.800781 103.820312 L 337.5 103.820312 L 337.5 124.222656 L 283.800781 124.222656 Z M 283.800781 103.820312 " clip-rule="nonzero"/></clipPath><clipPath id="6a21b80702"><path d="M 62.4375 37.5 L 120.375 37.5 L 120.375 124.40625 L 62.4375 124.40625 Z M 62.4375 37.5 " clip-rule="nonzero"/></clipPath><clipPath id="cf3b525072"><path d="M 90.5625 37.5 L 120.375 37.5 L 92.25 124.222656 L 62.4375 124.222656 Z M 90.5625 37.5 " clip-rule="nonzero"/></clipPath><clipPath id="b0a4f2db22"><path d="M 120.375 37.5 L 178.3125 37.5 L 178.3125 124.40625 L 120.375 124.40625 Z M 120.375 37.5 " clip-rule="nonzero"/></clipPath><clipPath id="fbd613b803"><path d="M 148.5 37.5 L 178.3125 37.5 L 150.1875 124.222656 L 120.375 124.222656 Z M 148.5 37.5 " clip-rule="nonzero"/></clipPath><clipPath id="5146caa2fb"><path d="M 91.40625 37.5 L 149.34375 37.5 L 149.34375 124.40625 L 91.40625 124.40625 Z M 91.40625 37.5 " clip-rule="nonzero"/></clipPath><clipPath id="a0af6f1ebc"><path d="M 120.4375 37.5 L 91.40625 37.5 L 120.316406 124.222656 L 149.34375 124.222656 Z M 120.4375 37.5 " clip-rule="nonzero"/></clipPath><clipPath id="9590d205e5"><path d="M 185.078125 266.242188 L 310.59375 266.242188 L 310.59375 279.074219 L 185.078125 279.074219 Z M 185.078125 266.242188 " clip-rule="nonzero"/></clipPath><clipPath id="0df13f9cf3"><path d="M 198.277344 266.242188 L 310.5625 266.242188 L 297.363281 279.074219 L 185.078125 279.074219 Z M 198.277344 266.242188 " clip-rule="nonzero"/></clipPath><clipPath id="1aeb7e3ed8"><path d="M 51 254 L 102 254 L 102 280 L 51 280 Z M 51 254 " clip-rule="nonzero"/></clipPath><clipPath id="fc4389436c"><path d="M 51.644531 272.003906 L 68.089844 243.332031 L 101.238281 262.34375 L 84.796875 291.015625 Z M 51.644531 272.003906 " clip-rule="nonzero"/></clipPath><clipPath id="7d7f3ce068"><path d="M 61.765625 254.359375 L 51.644531 272.003906 L 91.039062 279.945312 L 101.160156 262.300781 Z M 61.765625 254.359375 " clip-rule="nonzero"/></clipPath><clipPath id="be912d659f"><path d="M 37 258 L 68 258 L 68 309 L 37 309 Z M 37 258 " clip-rule="nonzero"/></clipPath><clipPath id="533c08fcb3"><path d="M 52.875 308.613281 L 27.316406 287.660156 L 51.546875 258.109375 L 77.105469 279.0625 Z M 52.875 308.613281 " clip-rule="nonzero"/></clipPath><clipPath id="57f6038221"><path d="M 37.144531 295.71875 L 52.875 308.613281 L 67.21875 271.074219 L 51.488281 258.179688 Z M 37.144531 295.71875 " clip-rule="nonzero"/></clipPath><clipPath id="42fd829901"><path d="M 30 289 L 76 289 L 76 328 L 30 328 Z M 30 289 " clip-rule="nonzero"/></clipPath><clipPath id="7cd688b6ae"><path d="M 75.507812 319.730469 L 45.074219 332.621094 L 30.171875 297.429688 L 60.605469 284.542969 Z M 75.507812 319.730469 " clip-rule="nonzero"/></clipPath><clipPath id="3c51395538"><path d="M 56.773438 327.664062 L 75.507812 319.730469 L 48.9375 289.582031 L 30.207031 297.511719 Z M 56.773438 327.664062 " clip-rule="nonzero"/></clipPath><clipPath id="5209a302fb"><path d="M 52 303 L 95 303 L 95 333 L 52 333 Z M 52 303 " clip-rule="nonzero"/></clipPath><clipPath id="db4c6d2444"><path d="M 94.101562 303.597656 L 90.402344 336.441406 L 52.429688 332.164062 L 56.128906 299.320312 Z M 94.101562 303.597656 " clip-rule="nonzero"/></clipPath><clipPath id="4f07a9887b"><path d="M 91.824219 323.8125 L 94.101562 303.597656 L 54.796875 311.960938 L 52.519531 332.175781 Z M 91.824219 323.8125 " clip-rule="nonzero"/></clipPath><clipPath id="6ffb71136d"><path d="M 146.148438 280.160156 L 159.261719 280.160156 L 159.261719 336.148438 L 146.148438 336.148438 Z M 146.148438 280.160156 " clip-rule="nonzero"/></clipPath><clipPath id="af329e0a19"><path d="M 146.148438 288.167969 L 146.148438 336.148438 L 159.261719 328.171875 L 159.261719 280.191406 Z M 146.148438 288.167969 " clip-rule="nonzero"/></clipPath><clipPath id="a494471e81"><path d="M 168.96875 265.339844 L 182.082031 265.339844 L 182.082031 323.734375 L 168.96875 323.734375 Z M 168.96875 265.339844 " clip-rule="nonzero"/></clipPath><clipPath id="374725e326"><path d="M 168.96875 273.347656 L 168.96875 323.734375 L 182.082031 315.757812 L 182.082031 265.371094 Z M 168.96875 273.347656 " clip-rule="nonzero"/></clipPath><clipPath id="5bc7ef7ca5"><path d="M 151 286 L 176 286 L 176 318 L 151 318 Z M 151 286 " clip-rule="nonzero"/></clipPath><clipPath id="b6f6ce7fd2"><path d="M 174.65625 317.667969 L 144.839844 297.203125 L 152.257812 286.390625 L 182.078125 306.855469 Z M 174.65625 317.667969 " clip-rule="nonzero"/></clipPath><clipPath id="5c0d4ae461"><path d="M 151.429688 301.726562 L 174.65625 317.667969 L 175.5 302.339844 L 152.273438 286.402344 Z M 151.429688 301.726562 " clip-rule="nonzero"/></clipPath><clipPath id="d408f23e3a"><path d="M 207.703125 270.332031 L 220.816406 270.332031 L 220.816406 333.589844 L 207.703125 333.589844 Z M 207.703125 270.332031 " clip-rule="nonzero"/></clipPath><clipPath id="d1c17946f8"><path d="M 207.703125 278.308594 L 207.703125 333.589844 L 220.816406 325.613281 L 220.816406 270.332031 Z M 207.703125 278.308594 " clip-rule="nonzero"/></clipPath><clipPath id="2e0d640c01"><path d="M 275.324219 270.285156 L 288.4375 270.285156 L 288.4375 337.492188 L 275.324219 337.492188 Z M 275.324219 270.285156 " clip-rule="nonzero"/></clipPath><clipPath id="6836b9ca8f"><path d="M 275.324219 278.3125 L 275.324219 337.492188 L 288.4375 329.515625 L 288.4375 270.335938 Z M 275.324219 278.3125 " clip-rule="nonzero"/></clipPath><clipPath id="ca020a9c1f"><path d="M 222.230469 280.996094 L 254.054688 280.996094 L 254.054688 288.21875 L 222.230469 288.21875 Z M 222.230469 280.996094 " clip-rule="nonzero"/></clipPath><clipPath id="b95ac0d24f"><path d="M 244.671875 280.996094 L 222.230469 280.996094 L 231.601562 288.21875 L 254.042969 288.21875 Z M 244.671875 280.996094 " clip-rule="nonzero"/></clipPath><clipPath id="2614baa497"><path d="M 231.578125 283.007812 L 239.882812 283.007812 L 239.882812 322.394531 L 231.578125 322.394531 Z M 231.578125 283.007812 " clip-rule="nonzero"/></clipPath><clipPath id="0666bcf23e"><path d="M 231.578125 287.523438 L 231.578125 322.394531 L 239.882812 317.910156 L 239.882812 283.039062 Z M 231.578125 287.523438 " clip-rule="nonzero"/></clipPath><clipPath id="38aa1ab3a8"><path d="M 233.675781 315.179688 L 252.433594 315.179688 L 252.433594 322.402344 L 233.675781 322.402344 Z M 233.675781 315.179688 " clip-rule="nonzero"/></clipPath><clipPath id="c5e8bf48cc"><path d="M 243.046875 315.179688 L 233.675781 315.179688 L 243.046875 322.402344 L 252.414062 322.402344 Z M 243.046875 315.179688 " clip-rule="nonzero"/></clipPath><clipPath id="9113fc7023"><path d="M 231.574219 316.585938 L 243.046875 316.585938 L 243.046875 322.402344 L 231.574219 322.402344 Z M 231.574219 316.585938 " clip-rule="nonzero"/></clipPath><clipPath id="e33ef64f47"><path d="M 238.621094 296.71875 L 247.820312 296.71875 L 247.820312 307.246094 L 238.621094 307.246094 Z M 238.621094 296.71875 " clip-rule="nonzero"/></clipPath><clipPath id="0a5cabe9d5"><path d="M 247.820312 301.972656 L 238.621094 307.230469 L 238.621094 296.71875 Z M 247.820312 301.972656 " clip-rule="nonzero"/></clipPath><clipPath id="6ec91a2392"><path d="M 244 256 L 303 256 L 303 300 L 244 300 Z M 244 256 " clip-rule="nonzero"/></clipPath><clipPath id="9324126b28"><path d="M 244.519531 298.808594 L 298.472656 251.621094 L 302.945312 256.730469 L 248.988281 303.917969 Z M 244.519531 298.808594 " clip-rule="nonzero"/></clipPath><clipPath id="c3787e9111"><path d="M 293.289062 256.15625 L 244.519531 298.808594 L 254.175781 299.386719 L 302.945312 256.730469 Z M 293.289062 256.15625 " clip-rule="nonzero"/></clipPath><clipPath id="085e453253"><path d="M 224 295 L 274 295 L 274 330 L 224 330 Z M 224 295 " clip-rule="nonzero"/></clipPath><clipPath id="23073e1c47"><path d="M 224.839844 328.765625 L 268.53125 290.554688 L 273.003906 295.664062 L 229.3125 333.875 Z M 224.839844 328.765625 " clip-rule="nonzero"/></clipPath><clipPath id="09e062795b"><path d="M 263.347656 295.089844 L 224.839844 328.765625 L 234.496094 329.34375 L 273.003906 295.667969 Z M 263.347656 295.089844 " clip-rule="nonzero"/></clipPath><clipPath id="151e57c66d"><path d="M 97 288 L 142 288 L 142 333 L 97 333 Z M 97 288 " clip-rule="nonzero"/></clipPath><clipPath id="dd5f15a80a"><path d="M 112.917969 288.21875 L 141.871094 304.050781 L 126.042969 333.003906 L 97.085938 317.175781 Z M 112.917969 288.21875 " clip-rule="nonzero"/></clipPath><clipPath id="5717433d77"><path d="M 112.917969 288.21875 L 141.851562 304.039062 L 126.035156 332.972656 L 97.097656 317.152344 Z M 112.917969 288.21875 " clip-rule="nonzero"/></clipPath><clipPath id="141114b330"><path d="M 115.523438 150.320312 L 189.886719 150.320312 L 189.886719 224.679688 L 115.523438 224.679688 Z M 115.523438 150.320312 " clip-rule="nonzero"/></clipPath><clipPath id="e4c9281c4b"><path d="M 152.703125 150.320312 L 164.535156 175.667969 L 189.886719 187.5 L 164.535156 199.332031 L 152.703125 224.679688 L 140.875 199.332031 L 115.523438 187.5 L 140.875 175.667969 Z M 152.703125 150.320312 " clip-rule="nonzero"/></clipPath><clipPath id="d439f3939d"><path d="M 305 266 L 364 266 L 364 272 L 305 272 Z M 305 266 " clip-rule="nonzero"/></clipPath><clipPath id="6fcc77b084"><path d="M 363.355469 269.730469 L 306.15625 272.894531 L 305.914062 268.535156 L 363.113281 265.371094 Z M 363.355469 269.730469 " clip-rule="nonzero"/></clipPath><clipPath id="d17472b2c5"><path d="M 334.761719 271.3125 L 363.355469 269.730469 L 334.523438 266.953125 L 305.929688 268.535156 Z M 334.761719 271.3125 " clip-rule="nonzero"/></clipPath><clipPath id="9d83d7cbb0"><path d="M 313 263 L 319 263 L 319 305 L 313 305 Z M 313 263 " clip-rule="nonzero"/></clipPath><clipPath id="c30803ac3d"><path d="M 315.9375 263.140625 L 321.332031 304.304688 L 316.371094 304.957031 L 310.976562 263.792969 Z M 315.9375 263.140625 " clip-rule="nonzero"/></clipPath><clipPath id="532460067a"><path d="M 318.671875 284.011719 L 315.9375 263.140625 L 313.632812 284.074219 L 316.367188 304.945312 Z M 318.671875 284.011719 " clip-rule="nonzero"/></clipPath><clipPath id="97265ba3eb"><path d="M 305 292 L 348 292 L 348 298 L 305 298 Z M 305 292 " clip-rule="nonzero"/></clipPath><clipPath id="c9a8f82505"><path d="M 347.738281 295.089844 L 306.578125 300.511719 L 305.921875 295.546875 L 347.082031 290.128906 Z M 347.738281 295.089844 " clip-rule="nonzero"/></clipPath><clipPath id="ee14297c68"><path d="M 326.867188 297.839844 L 347.738281 295.089844 L 326.804688 292.796875 L 305.933594 295.546875 Z M 326.867188 297.839844 " clip-rule="nonzero"/></clipPath><clipPath id="cd67c6e69b"><path d="M 339 299 L 349 299 L 349 310 L 339 310 Z M 339 299 " clip-rule="nonzero"/></clipPath><clipPath id="eff9893062"><path d="M 338.109375 301.757812 L 346.921875 298.5 L 350.179688 307.308594 L 341.371094 310.566406 Z M 338.109375 301.757812 " clip-rule="nonzero"/></clipPath><clipPath id="7704b47ffd"><path d="M 342.515625 300.128906 C 340.082031 301.027344 338.839844 303.730469 339.742188 306.164062 C 340.640625 308.59375 343.34375 309.835938 345.773438 308.9375 C 348.207031 308.039062 349.449219 305.335938 348.550781 302.902344 C 347.648438 300.46875 344.949219 299.226562 342.515625 300.128906 Z M 342.515625 300.128906 " clip-rule="nonzero"/></clipPath><clipPath id="2dd906d1c3"><path d="M 339 319 L 350 319 L 350 330 L 339 330 Z M 339 319 " clip-rule="nonzero"/></clipPath><clipPath id="33fb6cdd42"><path d="M 338.605469 321.753906 L 347.414062 318.492188 L 350.671875 327.304688 L 341.863281 330.5625 Z M 338.605469 321.753906 " clip-rule="nonzero"/></clipPath><clipPath id="e75fe4dbb3"><path d="M 343.007812 320.125 C 340.578125 321.023438 339.332031 323.726562 340.234375 326.15625 C 341.132812 328.589844 343.835938 329.832031 346.269531 328.933594 C 348.699219 328.03125 349.941406 325.332031 349.042969 322.898438 C 348.144531 320.464844 345.441406 319.222656 343.007812 320.125 Z M 343.007812 320.125 " clip-rule="nonzero"/></clipPath><clipPath id="3fe4f1c5e0"><path d="M 322 328 L 333 328 L 333 338 L 322 338 Z M 322 328 " clip-rule="nonzero"/></clipPath><clipPath id="8c83fa950e"><path d="M 321.335938 330.273438 L 330.144531 327.015625 L 333.402344 335.824219 L 324.59375 339.082031 Z M 321.335938 330.273438 " clip-rule="nonzero"/></clipPath><clipPath id="42e7c3a461"><path d="M 325.738281 328.644531 C 323.304688 329.542969 322.0625 332.246094 322.964844 334.679688 C 323.863281 337.113281 326.566406 338.355469 329 337.453125 C 331.429688 336.554688 332.671875 333.851562 331.773438 331.417969 C 330.875 328.988281 328.171875 327.746094 325.738281 328.644531 Z M 325.738281 328.644531 " clip-rule="nonzero"/></clipPath><clipPath id="4ad844ccb8"><path d="M 307 320 L 317 320 L 317 331 L 307 331 Z M 307 320 " clip-rule="nonzero"/></clipPath><clipPath id="5df771e28d"><path d="M 305.945312 322.605469 L 314.753906 319.34375 L 318.011719 328.15625 L 309.203125 331.414062 Z M 305.945312 322.605469 " clip-rule="nonzero"/></clipPath><clipPath id="ff416ab90f"><path d="M 310.347656 320.976562 C 307.914062 321.875 306.671875 324.578125 307.574219 327.011719 C 308.472656 329.441406 311.175781 330.683594 313.609375 329.785156 C 316.039062 328.882812 317.28125 326.183594 316.382812 323.75 C 315.480469 321.316406 312.78125 320.074219 310.347656 320.976562 Z M 310.347656 320.976562 " clip-rule="nonzero"/></clipPath></defs><rect x="-37.5" width="450" fill="#ffffff" y="-37.499999" height="449.999989" fill-opacity="1"/><rect x="-37.5" width="450" fill="#ffffff" y="-37.499999" height="449.999989" fill-opacity="1"/><g clip-path="url(#f5c6a6fc0d)"><g clip-path="url(#271b08ba3b)"><path fill="#ac6ad6" d="M 33.46875 37.5 L 91.40625 37.5 L 91.40625 124.179688 L 33.46875 124.179688 Z M 33.46875 37.5 " fill-opacity="1" fill-rule="nonzero"/></g></g><g clip-path="url(#c4f19f08b5)"><g clip-path="url(#9bcec51b46)"><path stroke-linecap="butt" transform="matrix(0.75, 0, 0, 0.75, 182.121014, 37.499998)" fill="none" stroke-linejoin="miter" d="M 57.81261 0.00000328333 C 25.885525 0.00000328333 0.000106146 25.885422 0.000106146 57.812507 C 0.000106146 89.739593 25.885525 115.625011 57.81261 115.625011 C 89.739695 115.625011 115.625114 89.739593 115.625114 57.812507 C 115.625114 25.885422 89.739695 0.00000328333 57.81261 0.00000328333 Z M 57.81261 0.00000328333 " stroke="#f7b519" stroke-width="70" stroke-opacity="1" stroke-miterlimit="4"/></g></g><g clip-path="url(#0e34ecbf0a)"><path fill="#f37321" d="M 294.34375 37.5 L 326.957031 37.5 L 326.957031 124.265625 L 294.34375 124.265625 Z M 294.34375 37.5 " fill-opacity="1" fill-rule="nonzero"/></g><g clip-path="url(#faab4d37e0)"><path fill="#f37321" d="M 283.800781 37.5 L 337.507812 37.5 L 337.507812 57.898438 L 283.800781 57.898438 Z M 283.800781 37.5 " fill-opacity="1" fill-rule="nonzero"/></g><g clip-path="url(#ae5efd6864)"><path fill="#f37321" d="M 283.800781 103.820312 L 337.507812 103.820312 L 337.507812 124.222656 L 283.800781 124.222656 Z M 283.800781 103.820312 " fill-opacity="1" fill-rule="nonzero"/></g><g clip-path="url(#6a21b80702)"><g clip-path="url(#cf3b525072)"><path fill="#ac6ad6" d="M 62.4375 37.5 L 120.375 37.5 L 120.375 124.179688 L 62.4375 124.179688 Z M 62.4375 37.5 " fill-opacity="1" fill-rule="nonzero"/></g></g><g clip-path="url(#b0a4f2db22)"><g clip-path="url(#fbd613b803)"><path fill="#ac6ad6" d="M 120.375 37.5 L 178.3125 37.5 L 178.3125 124.179688 L 120.375 124.179688 Z M 120.375 37.5 " fill-opacity="1" fill-rule="nonzero"/></g></g><g clip-path="url(#5146caa2fb)"><g clip-path="url(#a0af6f1ebc)"><path fill="#ac6ad6" d="M 91.40625 37.5 L 149.34375 37.5 L 149.34375 124.179688 L 91.40625 124.179688 Z M 91.40625 37.5 " fill-opacity="1" fill-rule="nonzero"/></g></g><g fill="#f7b519" fill-opacity="1"><g transform="translate(47.531457, 224.355209)"><g><path d="M 2.890625 -11.671875 L 15.71875 -23.359375 L 21.265625 -28.328125 C 25.816406 -32.335938 29.304688 -35.535156 31.734375 -37.921875 C 34.160156 -40.304688 36.160156 -42.734375 37.734375 -45.203125 C 39.316406 -47.671875 40.109375 -50.097656 40.109375 -52.484375 C 40.109375 -59.648438 36.066406 -63.234375 27.984375 -63.234375 C 24.046875 -63.234375 20.171875 -62.539062 16.359375 -61.15625 C 12.546875 -59.769531 9.019531 -57.84375 5.78125 -55.375 L 5.78125 -74.921875 C 9.25 -77.304688 13.296875 -79.171875 17.921875 -80.515625 C 22.546875 -81.867188 27.476562 -82.546875 32.71875 -82.546875 C 38.726562 -82.546875 43.929688 -81.425781 48.328125 -79.1875 C 52.722656 -76.957031 56.070312 -73.875 58.375 -69.9375 C 60.6875 -66.007812 61.84375 -61.582031 61.84375 -56.65625 C 61.84375 -50.71875 60.472656 -45.53125 57.734375 -41.09375 C 55.003906 -36.664062 50.597656 -31.675781 44.515625 -26.125 L 34.21875 -16.765625 L 64.390625 -16.765625 L 64.390625 0 L 2.890625 0 Z M 2.890625 -11.671875 "/></g></g></g><g fill="#f7b519" fill-opacity="1"><g transform="translate(114.839659, 224.355209)"><g/></g></g><g fill="#f7b519" fill-opacity="1"><g transform="translate(154.147987, 224.355209)"><g/></g></g><g fill="#f7b519" fill-opacity="1"><g transform="translate(193.461872, 224.355209)"><g><path d="M 2.890625 -11.671875 L 15.71875 -23.359375 L 21.265625 -28.328125 C 25.816406 -32.335938 29.304688 -35.535156 31.734375 -37.921875 C 34.160156 -40.304688 36.160156 -42.734375 37.734375 -45.203125 C 39.316406 -47.671875 40.109375 -50.097656 40.109375 -52.484375 C 40.109375 -59.648438 36.066406 -63.234375 27.984375 -63.234375 C 24.046875 -63.234375 20.171875 -62.539062 16.359375 -61.15625 C 12.546875 -59.769531 9.019531 -57.84375 5.78125 -55.375 L 5.78125 -74.921875 C 9.25 -77.304688 13.296875 -79.171875 17.921875 -80.515625 C 22.546875 -81.867188 27.476562 -82.546875 32.71875 -82.546875 C 38.726562 -82.546875 43.929688 -81.425781 48.328125 -79.1875 C 52.722656 -76.957031 56.070312 -73.875 58.375 -69.9375 C 60.6875 -66.007812 61.84375 -61.582031 61.84375 -56.65625 C 61.84375 -50.71875 60.472656 -45.53125 57.734375 -41.09375 C 55.003906 -36.664062 50.597656 -31.675781 44.515625 -26.125 L 34.21875 -16.765625 L 64.390625 -16.765625 L 64.390625 0 L 2.890625 0 Z M 2.890625 -11.671875 "/></g></g></g><g fill="#f7b519" fill-opacity="1"><g transform="translate(260.748473, 224.355209)"><g><path d="M 27.859375 1.734375 C 23.234375 1.734375 18.644531 1.234375 14.09375 0.234375 C 9.550781 -0.765625 5.816406 -2.15625 2.890625 -3.9375 L 2.890625 -21.84375 C 6.359375 -19.613281 10.269531 -17.863281 14.625 -16.59375 C 18.976562 -15.320312 23.082031 -14.6875 26.9375 -14.6875 C 32.332031 -14.6875 36.335938 -15.722656 38.953125 -17.796875 C 41.578125 -19.878906 42.890625 -22.734375 42.890625 -26.359375 C 42.890625 -29.828125 41.554688 -32.523438 38.890625 -34.453125 C 36.234375 -36.378906 32.519531 -37.34375 27.75 -37.34375 C 25.050781 -37.34375 22.21875 -37.09375 19.25 -36.59375 C 16.28125 -36.09375 13.71875 -35.378906 11.5625 -34.453125 L 3.703125 -38.953125 L 6.9375 -80.8125 L 58.734375 -80.8125 L 58.734375 -64.046875 L 26.703125 -64.046875 L 25.671875 -51.328125 C 29.210938 -52.253906 32.988281 -52.71875 37 -52.71875 C 45.394531 -52.71875 51.960938 -50.5 56.703125 -46.0625 C 61.441406 -41.632812 63.8125 -35.257812 63.8125 -26.9375 C 63.8125 -17.914062 60.765625 -10.878906 54.671875 -5.828125 C 48.585938 -0.785156 39.648438 1.734375 27.859375 1.734375 Z M 27.859375 1.734375 "/></g></g></g><g clip-path="url(#9590d205e5)"><g clip-path="url(#0df13f9cf3)"><path fill="#f7b519" d="M 185.078125 266.242188 L 310.542969 266.242188 L 310.542969 279.074219 L 185.078125 279.074219 Z M 185.078125 266.242188 " fill-opacity="1" fill-rule="nonzero"/></g></g><g clip-path="url(#1aeb7e3ed8)"><g clip-path="url(#fc4389436c)"><g clip-path="url(#7d7f3ce068)"><path fill="#f7b519" d="M 51.644531 272.003906 L 68.089844 243.332031 L 101.125 262.28125 L 84.683594 290.949219 Z M 51.644531 272.003906 " fill-opacity="1" fill-rule="nonzero"/></g></g></g><g clip-path="url(#be912d659f)"><g clip-path="url(#533c08fcb3)"><g clip-path="url(#57f6038221)"><path fill="#f7b519" d="M 52.875 308.613281 L 27.316406 287.660156 L 51.464844 258.207031 L 77.023438 279.164062 Z M 52.875 308.613281 " fill-opacity="1" fill-rule="nonzero"/></g></g></g><g clip-path="url(#42fd829901)"><g clip-path="url(#7cd688b6ae)"><g clip-path="url(#3c51395538)"><path fill="#f7b519" d="M 75.507812 319.730469 L 45.074219 332.621094 L 30.21875 297.550781 L 60.65625 284.660156 Z M 75.507812 319.730469 " fill-opacity="1" fill-rule="nonzero"/></g></g></g><g clip-path="url(#5209a302fb)"><g clip-path="url(#db4c6d2444)"><g clip-path="url(#4f07a9887b)"><path fill="#f7b519" d="M 94.101562 303.597656 L 90.402344 336.441406 L 52.558594 332.179688 L 56.257812 299.335938 Z M 94.101562 303.597656 " fill-opacity="1" fill-rule="nonzero"/></g></g></g><g clip-path="url(#6ffb71136d)"><g clip-path="url(#af329e0a19)"><path fill="#f7b519" d="M 146.148438 336.148438 L 146.148438 280.210938 L 159.261719 280.210938 L 159.261719 336.148438 Z M 146.148438 336.148438 " fill-opacity="1" fill-rule="nonzero"/></g></g><g clip-path="url(#a494471e81)"><g clip-path="url(#374725e326)"><path fill="#f7b519" d="M 168.96875 323.734375 L 168.96875 265.394531 L 182.082031 265.394531 L 182.082031 323.734375 Z M 168.96875 323.734375 " fill-opacity="1" fill-rule="nonzero"/></g></g><g clip-path="url(#5bc7ef7ca5)"><g clip-path="url(#b6f6ce7fd2)"><g clip-path="url(#5c0d4ae461)"><path fill="#f7b519" d="M 174.65625 317.667969 L 144.839844 297.203125 L 152.257812 286.390625 L 182.078125 306.855469 Z M 174.65625 317.667969 " fill-opacity="1" fill-rule="nonzero"/></g></g></g><g clip-path="url(#d408f23e3a)"><g clip-path="url(#d1c17946f8)"><path fill="#f7b519" d="M 207.703125 333.589844 L 207.703125 270.332031 L 220.816406 270.332031 L 220.816406 333.589844 Z M 207.703125 333.589844 " fill-opacity="1" fill-rule="nonzero"/></g></g><g clip-path="url(#2e0d640c01)"><g clip-path="url(#6836b9ca8f)"><path fill="#f7b519" d="M 275.324219 337.492188 L 275.324219 270.335938 L 288.4375 270.335938 L 288.4375 337.492188 Z M 275.324219 337.492188 " fill-opacity="1" fill-rule="nonzero"/></g></g><g clip-path="url(#ca020a9c1f)"><g clip-path="url(#b95ac0d24f)"><path fill="#ff6b00" d="M 222.230469 280.996094 L 254.054688 280.996094 L 254.054688 288.21875 L 222.230469 288.21875 Z M 222.230469 280.996094 " fill-opacity="1" fill-rule="nonzero"/></g></g><g clip-path="url(#2614baa497)"><g clip-path="url(#0666bcf23e)"><path fill="#ff6b00" d="M 231.578125 322.394531 L 231.578125 283.039062 L 239.882812 283.039062 L 239.882812 322.394531 Z M 231.578125 322.394531 " fill-opacity="1" fill-rule="nonzero"/></g></g><g clip-path="url(#38aa1ab3a8)"><g clip-path="url(#c5e8bf48cc)"><path fill="#ff6b00" d="M 233.675781 315.179688 L 252.40625 315.179688 L 252.40625 322.402344 L 233.675781 322.402344 Z M 233.675781 315.179688 " fill-opacity="1" fill-rule="nonzero"/></g></g><g clip-path="url(#9113fc7023)"><path fill="#ff6b00" d="M 231.574219 316.585938 L 243.050781 316.585938 L 243.050781 322.402344 L 231.574219 322.402344 Z M 231.574219 316.585938 " fill-opacity="1" fill-rule="nonzero"/></g><g clip-path="url(#e33ef64f47)"><g clip-path="url(#0a5cabe9d5)"><path fill="#ff6b00" d="M 247.820312 296.71875 L 247.820312 307.246094 L 238.621094 307.246094 L 238.621094 296.71875 Z M 247.820312 296.71875 " fill-opacity="1" fill-rule="nonzero"/></g></g><g clip-path="url(#6ec91a2392)"><g clip-path="url(#9324126b28)"><g clip-path="url(#c3787e9111)"><path fill="#ff4d00" d="M 244.519531 298.808594 L 298.472656 251.621094 L 302.945312 256.730469 L 248.988281 303.917969 Z M 244.519531 298.808594 " fill-opacity="1" fill-rule="nonzero"/></g></g></g><g clip-path="url(#085e453253)"><g clip-path="url(#23073e1c47)"><g clip-path="url(#09e062795b)"><path fill="#ff4d00" d="M 224.839844 328.765625 L 268.53125 290.554688 L 273.003906 295.664062 L 229.3125 333.875 Z M 224.839844 328.765625 " fill-opacity="1" fill-rule="nonzero"/></g></g></g><g clip-path="url(#151e57c66d)"><g clip-path="url(#dd5f15a80a)"><g clip-path="url(#5717433d77)"><path stroke-linecap="butt" transform="matrix(0.658072, 0.359779, -0.359779, 0.658072, 112.917808, 288.218859)" fill="none" stroke-linejoin="miter" d="M 0.000118221 -0.000229772 L 43.968493 0.00194931 L 43.970883 43.967825 L -0.00206086 43.968145 Z M 0.000118221 -0.000229772 " stroke="#f7b519" stroke-width="32" stroke-opacity="1" stroke-miterlimit="4"/></g></g></g><g clip-path="url(#141114b330)"><g clip-path="url(#e4c9281c4b)"><path fill="#f7b519" d="M 115.523438 150.320312 L 189.886719 150.320312 L 189.886719 224.679688 L 115.523438 224.679688 Z M 115.523438 150.320312 " fill-opacity="1" fill-rule="nonzero"/></g></g><g clip-path="url(#d439f3939d)"><g clip-path="url(#6fcc77b084)"><g clip-path="url(#d17472b2c5)"><path fill="#ff4d00" d="M 363.355469 269.730469 L 306.171875 272.894531 L 305.933594 268.535156 L 363.113281 265.371094 Z M 363.355469 269.730469 " fill-opacity="1" fill-rule="nonzero"/></g></g></g><g clip-path="url(#9d83d7cbb0)"><g clip-path="url(#c30803ac3d)"><g clip-path="url(#532460067a)"><path fill="#ac6ad6" d="M 315.9375 263.140625 L 321.332031 304.285156 L 316.367188 304.9375 L 310.976562 263.792969 Z M 315.9375 263.140625 " fill-opacity="1" fill-rule="nonzero"/></g></g></g><g clip-path="url(#97265ba3eb)"><g clip-path="url(#c9a8f82505)"><g clip-path="url(#ee14297c68)"><path fill="#ac6ad6" d="M 347.738281 295.089844 L 306.597656 300.507812 L 305.941406 295.546875 L 347.082031 290.128906 Z M 347.738281 295.089844 " fill-opacity="1" fill-rule="nonzero"/></g></g></g><g clip-path="url(#cd67c6e69b)"><g clip-path="url(#eff9893062)"><g clip-path="url(#7704b47ffd)"><path fill="#ac6ad6" d="M 338.109375 301.757812 L 346.921875 298.5 L 350.179688 307.308594 L 341.371094 310.566406 Z M 338.109375 301.757812 " fill-opacity="1" fill-rule="nonzero"/></g></g></g><g clip-path="url(#2dd906d1c3)"><g clip-path="url(#33fb6cdd42)"><g clip-path="url(#e75fe4dbb3)"><path fill="#ac6ad6" d="M 338.605469 321.753906 L 347.414062 318.492188 L 350.671875 327.304688 L 341.863281 330.5625 Z M 338.605469 321.753906 " fill-opacity="1" fill-rule="nonzero"/></g></g></g><g clip-path="url(#3fe4f1c5e0)"><g clip-path="url(#8c83fa950e)"><g clip-path="url(#42e7c3a461)"><path fill="#ac6ad6" d="M 321.335938 330.273438 L 330.144531 327.015625 L 333.402344 335.824219 L 324.59375 339.082031 Z M 321.335938 330.273438 " fill-opacity="1" fill-rule="nonzero"/></g></g></g><path stroke-linecap="butt" transform="matrix(-0.0212297, 0.749699, -0.749699, -0.0212297, 346.420206, 305.323866)" fill="none" stroke-linejoin="miter" d="M -0.00171508 2.498824 L 26.508898 2.498408 " stroke="#ac6ad6" stroke-width="5" stroke-opacity="1" stroke-miterlimit="4"/><path stroke-linecap="butt" transform="matrix(0.673722, -0.329544, 0.329544, 0.673722, 327.060393, 331.291649)" fill="none" stroke-linejoin="miter" d="M -0.00208171 2.499887 L 23.659222 2.500712 " stroke="#ac6ad6" stroke-width="5" stroke-opacity="1" stroke-miterlimit="4"/><g clip-path="url(#4ad844ccb8)"><g clip-path="url(#5df771e28d)"><g clip-path="url(#ff416ab90f)"><path fill="#ac6ad6" d="M 305.945312 322.605469 L 314.753906 319.347656 L 318.011719 328.15625 L 309.203125 331.414062 Z M 305.945312 322.605469 " fill-opacity="1" fill-rule="nonzero"/></g></g></g><path stroke-linecap="butt" transform="matrix(0.663338, 0.349976, -0.349976, 0.663338, 313.024143, 323.997137)" fill="none" stroke-linejoin="miter" d="M -0.00042607 2.501383 L 22.759304 2.50062 " stroke="#ac6ad6" stroke-width="5" stroke-opacity="1" stroke-miterlimit="4"/></svg>