<svg xmlns="http://www.w3.org/2000/svg" xmlns:xlink="http://www.w3.org/1999/xlink" width="500" zoomAndPan="magnify" viewBox="0 0 375 374.999991" height="500" preserveAspectRatio="xMidYMid meet" version="1.0"><defs><g/><clipPath id="2829e821e1"><path d="M 33.46875 37.5 L 91.40625 37.5 L 91.40625 124.40625 L 33.46875 124.40625 Z M 33.46875 37.5 " clip-rule="nonzero"/></clipPath><clipPath id="f4e8b130ec"><path d="M 62.5 37.5 L 33.46875 37.5 L 62.378906 124.222656 L 91.40625 124.222656 Z M 62.5 37.5 " clip-rule="nonzero"/></clipPath><clipPath id="633001fc2a"><path d="M 182.121094 37.5 L 268.839844 37.5 L 268.839844 124.21875 L 182.121094 124.21875 Z M 182.121094 37.5 " clip-rule="nonzero"/></clipPath><clipPath id="001dff8348"><path d="M 225.480469 37.5 C 201.535156 37.5 182.121094 56.914062 182.121094 80.859375 C 182.121094 104.804688 201.535156 124.21875 225.480469 124.21875 C 249.425781 124.21875 268.839844 104.804688 268.839844 80.859375 C 268.839844 56.914062 249.425781 37.5 225.480469 37.5 Z M 225.480469 37.5 " clip-rule="nonzero"/></clipPath><clipPath id="be0773e098"><path d="M 294.34375 37.5 L 326.957031 37.5 L 326.957031 124.222656 L 294.34375 124.222656 Z M 294.34375 37.5 " clip-rule="nonzero"/></clipPath><clipPath id="a17d24496e"><path d="M 283.800781 37.5 L 337.5 37.5 L 337.5 57.898438 L 283.800781 57.898438 Z M 283.800781 37.5 " clip-rule="nonzero"/></clipPath><clipPath id="fb087018c2"><path d="M 283.800781 103.820312 L 337.5 103.820312 L 337.5 124.222656 L 283.800781 124.222656 Z M 283.800781 103.820312 " clip-rule="nonzero"/></clipPath><clipPath id="77c7fc36fd"><path d="M 62.4375 37.5 L 120.375 37.5 L 120.375 124.40625 L 62.4375 124.40625 Z M 62.4375 37.5 " clip-rule="nonzero"/></clipPath><clipPath id="5f22ab07b3"><path d="M 90.5625 37.5 L 120.375 37.5 L 92.25 124.222656 L 62.4375 124.222656 Z M 90.5625 37.5 " clip-rule="nonzero"/></clipPath><clipPath id="3c38d34d85"><path d="M 120.375 37.5 L 178.3125 37.5 L 178.3125 124.40625 L 120.375 124.40625 Z M 120.375 37.5 " clip-rule="nonzero"/></clipPath><clipPath id="03ddc23819"><path d="M 148.5 37.5 L 178.3125 37.5 L 150.1875 124.222656 L 120.375 124.222656 Z M 148.5 37.5 " clip-rule="nonzero"/></clipPath><clipPath id="0a80eaf499"><path d="M 91.40625 37.5 L 149.34375 37.5 L 149.34375 124.40625 L 91.40625 124.40625 Z M 91.40625 37.5 " clip-rule="nonzero"/></clipPath><clipPath id="ecc219c804"><path d="M 120.4375 37.5 L 91.40625 37.5 L 120.316406 124.222656 L 149.34375 124.222656 Z M 120.4375 37.5 " clip-rule="nonzero"/></clipPath><clipPath id="164493883e"><path d="M 185.078125 266.242188 L 310.59375 266.242188 L 310.59375 279.074219 L 185.078125 279.074219 Z M 185.078125 266.242188 " clip-rule="nonzero"/></clipPath><clipPath id="7054267e00"><path d="M 198.277344 266.242188 L 310.5625 266.242188 L 297.363281 279.074219 L 185.078125 279.074219 Z M 198.277344 266.242188 " clip-rule="nonzero"/></clipPath><clipPath id="7a3ef3bfb9"><path d="M 51 254 L 102 254 L 102 280 L 51 280 Z M 51 254 " clip-rule="nonzero"/></clipPath><clipPath id="9128947927"><path d="M 51.644531 272.003906 L 68.089844 243.332031 L 101.238281 262.34375 L 84.796875 291.015625 Z M 51.644531 272.003906 " clip-rule="nonzero"/></clipPath><clipPath id="a33b9d1edf"><path d="M 61.765625 254.359375 L 51.644531 272.003906 L 91.039062 279.945312 L 101.160156 262.300781 Z M 61.765625 254.359375 " clip-rule="nonzero"/></clipPath><clipPath id="d2a200ac27"><path d="M 37 258 L 68 258 L 68 309 L 37 309 Z M 37 258 " clip-rule="nonzero"/></clipPath><clipPath id="447d570f02"><path d="M 52.875 308.613281 L 27.316406 287.660156 L 51.546875 258.109375 L 77.105469 279.0625 Z M 52.875 308.613281 " clip-rule="nonzero"/></clipPath><clipPath id="469e56f46b"><path d="M 37.144531 295.71875 L 52.875 308.613281 L 67.21875 271.074219 L 51.488281 258.179688 Z M 37.144531 295.71875 " clip-rule="nonzero"/></clipPath><clipPath id="c8475047e5"><path d="M 30 289 L 76 289 L 76 328 L 30 328 Z M 30 289 " clip-rule="nonzero"/></clipPath><clipPath id="cf0c5b09fd"><path d="M 75.507812 319.730469 L 45.074219 332.621094 L 30.171875 297.429688 L 60.605469 284.542969 Z M 75.507812 319.730469 " clip-rule="nonzero"/></clipPath><clipPath id="5b12f998c2"><path d="M 56.773438 327.664062 L 75.507812 319.730469 L 48.9375 289.582031 L 30.207031 297.511719 Z M 56.773438 327.664062 " clip-rule="nonzero"/></clipPath><clipPath id="83afcc0ffc"><path d="M 52 303 L 95 303 L 95 333 L 52 333 Z M 52 303 " clip-rule="nonzero"/></clipPath><clipPath id="3889d26aa0"><path d="M 94.101562 303.597656 L 90.402344 336.441406 L 52.429688 332.164062 L 56.128906 299.320312 Z M 94.101562 303.597656 " clip-rule="nonzero"/></clipPath><clipPath id="a4e2705e96"><path d="M 91.824219 323.8125 L 94.101562 303.597656 L 54.796875 311.960938 L 52.519531 332.175781 Z M 91.824219 323.8125 " clip-rule="nonzero"/></clipPath><clipPath id="f760ac37f5"><path d="M 146.148438 280.160156 L 159.261719 280.160156 L 159.261719 336.148438 L 146.148438 336.148438 Z M 146.148438 280.160156 " clip-rule="nonzero"/></clipPath><clipPath id="5823b278a8"><path d="M 146.148438 288.167969 L 146.148438 336.148438 L 159.261719 328.171875 L 159.261719 280.191406 Z M 146.148438 288.167969 " clip-rule="nonzero"/></clipPath><clipPath id="976052145b"><path d="M 168.96875 265.339844 L 182.082031 265.339844 L 182.082031 323.734375 L 168.96875 323.734375 Z M 168.96875 265.339844 " clip-rule="nonzero"/></clipPath><clipPath id="5d46a19ace"><path d="M 168.96875 273.347656 L 168.96875 323.734375 L 182.082031 315.757812 L 182.082031 265.371094 Z M 168.96875 273.347656 " clip-rule="nonzero"/></clipPath><clipPath id="34db3f3a14"><path d="M 151 286 L 176 286 L 176 318 L 151 318 Z M 151 286 " clip-rule="nonzero"/></clipPath><clipPath id="f724b8950d"><path d="M 174.65625 317.667969 L 144.839844 297.203125 L 152.257812 286.390625 L 182.078125 306.855469 Z M 174.65625 317.667969 " clip-rule="nonzero"/></clipPath><clipPath id="d74c7c2e37"><path d="M 151.429688 301.726562 L 174.65625 317.667969 L 175.5 302.339844 L 152.273438 286.402344 Z M 151.429688 301.726562 " clip-rule="nonzero"/></clipPath><clipPath id="344ff4a262"><path d="M 207.703125 270.332031 L 220.816406 270.332031 L 220.816406 333.589844 L 207.703125 333.589844 Z M 207.703125 270.332031 " clip-rule="nonzero"/></clipPath><clipPath id="1bd5b68581"><path d="M 207.703125 278.308594 L 207.703125 333.589844 L 220.816406 325.613281 L 220.816406 270.332031 Z M 207.703125 278.308594 " clip-rule="nonzero"/></clipPath><clipPath id="ae38c5fc3e"><path d="M 275.324219 270.285156 L 288.4375 270.285156 L 288.4375 337.492188 L 275.324219 337.492188 Z M 275.324219 270.285156 " clip-rule="nonzero"/></clipPath><clipPath id="d715ff66de"><path d="M 275.324219 278.3125 L 275.324219 337.492188 L 288.4375 329.515625 L 288.4375 270.335938 Z M 275.324219 278.3125 " clip-rule="nonzero"/></clipPath><clipPath id="0797465c70"><path d="M 222.230469 280.996094 L 254.054688 280.996094 L 254.054688 288.21875 L 222.230469 288.21875 Z M 222.230469 280.996094 " clip-rule="nonzero"/></clipPath><clipPath id="0ddb1a4c22"><path d="M 244.671875 280.996094 L 222.230469 280.996094 L 231.601562 288.21875 L 254.042969 288.21875 Z M 244.671875 280.996094 " clip-rule="nonzero"/></clipPath><clipPath id="c9e482c650"><path d="M 231.578125 283.007812 L 239.882812 283.007812 L 239.882812 322.394531 L 231.578125 322.394531 Z M 231.578125 283.007812 " clip-rule="nonzero"/></clipPath><clipPath id="2df2be2c29"><path d="M 231.578125 287.523438 L 231.578125 322.394531 L 239.882812 317.910156 L 239.882812 283.039062 Z M 231.578125 287.523438 " clip-rule="nonzero"/></clipPath><clipPath id="4710e1239a"><path d="M 233.675781 315.179688 L 252.433594 315.179688 L 252.433594 322.402344 L 233.675781 322.402344 Z M 233.675781 315.179688 " clip-rule="nonzero"/></clipPath><clipPath id="1125c0b89b"><path d="M 243.046875 315.179688 L 233.675781 315.179688 L 243.046875 322.402344 L 252.414062 322.402344 Z M 243.046875 315.179688 " clip-rule="nonzero"/></clipPath><clipPath id="5968df3f2d"><path d="M 231.574219 316.585938 L 243.046875 316.585938 L 243.046875 322.402344 L 231.574219 322.402344 Z M 231.574219 316.585938 " clip-rule="nonzero"/></clipPath><clipPath id="4ba20d296e"><path d="M 238.621094 296.71875 L 247.820312 296.71875 L 247.820312 307.246094 L 238.621094 307.246094 Z M 238.621094 296.71875 " clip-rule="nonzero"/></clipPath><clipPath id="acfb29c1d6"><path d="M 247.820312 301.972656 L 238.621094 307.230469 L 238.621094 296.71875 Z M 247.820312 301.972656 " clip-rule="nonzero"/></clipPath><clipPath id="76c7c95729"><path d="M 244 256 L 303 256 L 303 300 L 244 300 Z M 244 256 " clip-rule="nonzero"/></clipPath><clipPath id="3a0ef06c19"><path d="M 244.519531 298.808594 L 298.472656 251.621094 L 302.945312 256.730469 L 248.988281 303.917969 Z M 244.519531 298.808594 " clip-rule="nonzero"/></clipPath><clipPath id="c0a108491a"><path d="M 293.289062 256.15625 L 244.519531 298.808594 L 254.175781 299.386719 L 302.945312 256.730469 Z M 293.289062 256.15625 " clip-rule="nonzero"/></clipPath><clipPath id="67e38a6c04"><path d="M 224 295 L 274 295 L 274 330 L 224 330 Z M 224 295 " clip-rule="nonzero"/></clipPath><clipPath id="0f6bf24e97"><path d="M 224.839844 328.765625 L 268.53125 290.554688 L 273.003906 295.664062 L 229.3125 333.875 Z M 224.839844 328.765625 " clip-rule="nonzero"/></clipPath><clipPath id="366b1c448e"><path d="M 263.347656 295.089844 L 224.839844 328.765625 L 234.496094 329.34375 L 273.003906 295.667969 Z M 263.347656 295.089844 " clip-rule="nonzero"/></clipPath><clipPath id="363ab5df5b"><path d="M 97 288 L 142 288 L 142 333 L 97 333 Z M 97 288 " clip-rule="nonzero"/></clipPath><clipPath id="44d9bc42e0"><path d="M 112.917969 288.21875 L 141.871094 304.050781 L 126.042969 333.003906 L 97.085938 317.175781 Z M 112.917969 288.21875 " clip-rule="nonzero"/></clipPath><clipPath id="9c91a6883a"><path d="M 112.917969 288.21875 L 141.851562 304.039062 L 126.035156 332.972656 L 97.097656 317.152344 Z M 112.917969 288.21875 " clip-rule="nonzero"/></clipPath><clipPath id="f6e4d19e86"><path d="M 115.523438 150.320312 L 189.886719 150.320312 L 189.886719 224.679688 L 115.523438 224.679688 Z M 115.523438 150.320312 " clip-rule="nonzero"/></clipPath><clipPath id="7e3661a9d1"><path d="M 152.703125 150.320312 L 164.535156 175.667969 L 189.886719 187.5 L 164.535156 199.332031 L 152.703125 224.679688 L 140.875 199.332031 L 115.523438 187.5 L 140.875 175.667969 Z M 152.703125 150.320312 " clip-rule="nonzero"/></clipPath><clipPath id="91b7f9213f"><path d="M 299 267 L 308 267 L 308 340 L 299 340 Z M 299 267 " clip-rule="nonzero"/></clipPath><clipPath id="abfbe908ff"><path d="M 303.203125 267.003906 L 312.59375 338.65625 L 303.953125 339.789062 L 294.5625 268.136719 Z M 303.203125 267.003906 " clip-rule="nonzero"/></clipPath><clipPath id="e9dd48225b"><path d="M 307.964844 303.332031 L 303.203125 267.003906 L 299.1875 303.4375 L 303.949219 339.769531 Z M 307.964844 303.332031 " clip-rule="nonzero"/></clipPath><clipPath id="f7ad3c43bf"><path d="M 268 283 L 364 283 L 364 292 L 268 292 Z M 268 283 " clip-rule="nonzero"/></clipPath><clipPath id="a44056d261"><path d="M 363.617188 288.523438 L 269.203125 293.742188 L 268.808594 286.546875 L 363.222656 281.324219 Z M 363.617188 288.523438 " clip-rule="nonzero"/></clipPath><clipPath id="1918a5060f"><path d="M 316.425781 291.132812 L 363.617188 288.523438 L 316.027344 283.933594 L 268.832031 286.542969 Z M 316.425781 291.132812 " clip-rule="nonzero"/></clipPath><clipPath id="a0f13770b9"><path d="M 286 318 L 350 318 L 350 327 L 286 327 Z M 286 318 " clip-rule="nonzero"/></clipPath><clipPath id="576b1161b5"><path d="M 349.0625 322.039062 L 287.136719 330.195312 L 286.152344 322.726562 L 348.078125 314.570312 Z M 349.0625 322.039062 " clip-rule="nonzero"/></clipPath><clipPath id="e06e84b0f9"><path d="M 317.664062 326.171875 L 349.0625 322.039062 L 317.566406 318.589844 L 286.167969 322.722656 Z M 317.664062 326.171875 " clip-rule="nonzero"/></clipPath><clipPath id="ab08544855"><path d="M 287 344 L 301 344 L 301 358 L 287 358 Z M 287 344 " clip-rule="nonzero"/></clipPath><clipPath id="2570927ce6"><path d="M 285.753906 347.179688 L 297.949219 342.667969 L 302.464844 354.867188 L 290.265625 359.378906 Z M 285.753906 347.179688 " clip-rule="nonzero"/></clipPath><clipPath id="345cf8556a"><path d="M 291.851562 344.925781 C 288.484375 346.171875 286.761719 349.910156 288.007812 353.28125 C 289.257812 356.648438 292.996094 358.367188 296.363281 357.121094 C 299.734375 355.875 301.453125 352.136719 300.207031 348.765625 C 298.960938 345.398438 295.21875 343.679688 291.851562 344.925781 Z M 291.851562 344.925781 " clip-rule="nonzero"/></clipPath><clipPath id="9fb1950353"><path d="M 309 354 L 323 354 L 323 368 L 309 368 Z M 309 354 " clip-rule="nonzero"/></clipPath><clipPath id="e73a390ece"><path d="M 307.296875 356.84375 L 319.496094 352.332031 L 324.007812 364.527344 L 311.8125 369.042969 Z M 307.296875 356.84375 " clip-rule="nonzero"/></clipPath><clipPath id="9088eb269b"><path d="M 313.398438 354.585938 C 310.027344 355.832031 308.308594 359.574219 309.554688 362.941406 C 310.800781 366.3125 314.542969 368.03125 317.910156 366.785156 C 321.277344 365.539062 323 361.796875 321.75 358.429688 C 320.503906 355.0625 316.765625 353.339844 313.398438 354.585938 Z M 313.398438 354.585938 " clip-rule="nonzero"/></clipPath><clipPath id="a801a7b812"><path d="M 330 340 L 344 340 L 344 354 L 330 354 Z M 330 340 " clip-rule="nonzero"/></clipPath><clipPath id="1c274c47a0"><path d="M 328.894531 343.144531 L 341.089844 338.632812 L 345.605469 350.828125 L 333.40625 355.34375 Z M 328.894531 343.144531 " clip-rule="nonzero"/></clipPath><clipPath id="8f5d99864a"><path d="M 334.992188 340.886719 C 331.625 342.132812 329.902344 345.875 331.148438 349.242188 C 332.398438 352.613281 336.136719 354.332031 339.503906 353.085938 C 342.875 351.839844 344.59375 348.097656 343.347656 344.730469 C 342.101562 341.363281 338.359375 339.640625 334.992188 340.886719 Z M 334.992188 340.886719 " clip-rule="nonzero"/></clipPath><clipPath id="2be05a8461"><path d="M 330 317 L 344 317 L 344 331 L 330 331 Z M 330 317 " clip-rule="nonzero"/></clipPath><clipPath id="eb813e5ab9"><path d="M 328.910156 319.691406 L 341.109375 315.179688 L 345.621094 327.375 L 333.425781 331.890625 Z M 328.910156 319.691406 " clip-rule="nonzero"/></clipPath><clipPath id="4f61872388"><path d="M 335.011719 317.4375 C 331.640625 318.683594 329.921875 322.421875 331.167969 325.792969 C 332.414062 329.160156 336.15625 330.878906 339.523438 329.632812 C 342.890625 328.386719 344.613281 324.644531 343.367188 321.277344 C 342.121094 317.910156 338.378906 316.191406 335.011719 317.4375 Z M 335.011719 317.4375 " clip-rule="nonzero"/></clipPath></defs><g clip-path="url(#2829e821e1)"><g clip-path="url(#f4e8b130ec)"><path fill="#ac6ad6" d="M 33.46875 37.5 L 91.40625 37.5 L 91.40625 124.179688 L 33.46875 124.179688 Z M 33.46875 37.5 " fill-opacity="1" fill-rule="nonzero"/></g></g><g clip-path="url(#633001fc2a)"><g clip-path="url(#001dff8348)"><path stroke-linecap="butt" transform="matrix(0.75, 0, 0, 0.75, 182.121014, 37.499998)" fill="none" stroke-linejoin="miter" d="M 57.81261 0.00000328333 C 25.885525 0.00000328333 0.000106146 25.885422 0.000106146 57.812507 C 0.000106146 89.739593 25.885525 115.625011 57.81261 115.625011 C 89.739695 115.625011 115.625114 89.739593 115.625114 57.812507 C 115.625114 25.885422 89.739695 0.00000328333 57.81261 0.00000328333 Z M 57.81261 0.00000328333 " stroke="#f7b519" stroke-width="70" stroke-opacity="1" stroke-miterlimit="4"/></g></g><g clip-path="url(#be0773e098)"><path fill="#f37321" d="M 294.34375 37.5 L 326.957031 37.5 L 326.957031 124.265625 L 294.34375 124.265625 Z M 294.34375 37.5 " fill-opacity="1" fill-rule="nonzero"/></g><g clip-path="url(#a17d24496e)"><path fill="#f37321" d="M 283.800781 37.5 L 337.507812 37.5 L 337.507812 57.898438 L 283.800781 57.898438 Z M 283.800781 37.5 " fill-opacity="1" fill-rule="nonzero"/></g><g clip-path="url(#fb087018c2)"><path fill="#f37321" d="M 283.800781 103.820312 L 337.507812 103.820312 L 337.507812 124.222656 L 283.800781 124.222656 Z M 283.800781 103.820312 " fill-opacity="1" fill-rule="nonzero"/></g><g clip-path="url(#77c7fc36fd)"><g clip-path="url(#5f22ab07b3)"><path fill="#ac6ad6" d="M 62.4375 37.5 L 120.375 37.5 L 120.375 124.179688 L 62.4375 124.179688 Z M 62.4375 37.5 " fill-opacity="1" fill-rule="nonzero"/></g></g><g clip-path="url(#3c38d34d85)"><g clip-path="url(#03ddc23819)"><path fill="#ac6ad6" d="M 120.375 37.5 L 178.3125 37.5 L 178.3125 124.179688 L 120.375 124.179688 Z M 120.375 37.5 " fill-opacity="1" fill-rule="nonzero"/></g></g><g clip-path="url(#0a80eaf499)"><g clip-path="url(#ecc219c804)"><path fill="#ac6ad6" d="M 91.40625 37.5 L 149.34375 37.5 L 149.34375 124.179688 L 91.40625 124.179688 Z M 91.40625 37.5 " fill-opacity="1" fill-rule="nonzero"/></g></g><g fill="#f7b519" fill-opacity="1"><g transform="translate(47.531457, 224.355209)"><g><path d="M 2.890625 -11.671875 L 15.71875 -23.359375 L 21.265625 -28.328125 C 25.816406 -32.335938 29.304688 -35.535156 31.734375 -37.921875 C 34.160156 -40.304688 36.160156 -42.734375 37.734375 -45.203125 C 39.316406 -47.671875 40.109375 -50.097656 40.109375 -52.484375 C 40.109375 -59.648438 36.066406 -63.234375 27.984375 -63.234375 C 24.046875 -63.234375 20.171875 -62.539062 16.359375 -61.15625 C 12.546875 -59.769531 9.019531 -57.84375 5.78125 -55.375 L 5.78125 -74.921875 C 9.25 -77.304688 13.296875 -79.171875 17.921875 -80.515625 C 22.546875 -81.867188 27.476562 -82.546875 32.71875 -82.546875 C 38.726562 -82.546875 43.929688 -81.425781 48.328125 -79.1875 C 52.722656 -76.957031 56.070312 -73.875 58.375 -69.9375 C 60.6875 -66.007812 61.84375 -61.582031 61.84375 -56.65625 C 61.84375 -50.71875 60.472656 -45.53125 57.734375 -41.09375 C 55.003906 -36.664062 50.597656 -31.675781 44.515625 -26.125 L 34.21875 -16.765625 L 64.390625 -16.765625 L 64.390625 0 L 2.890625 0 Z M 2.890625 -11.671875 "/></g></g></g><g fill="#f7b519" fill-opacity="1"><g transform="translate(114.839659, 224.355209)"><g/></g></g><g fill="#f7b519" fill-opacity="1"><g transform="translate(154.147987, 224.355209)"><g/></g></g><g fill="#f7b519" fill-opacity="1"><g transform="translate(193.461872, 224.355209)"><g><path d="M 2.890625 -11.671875 L 15.71875 -23.359375 L 21.265625 -28.328125 C 25.816406 -32.335938 29.304688 -35.535156 31.734375 -37.921875 C 34.160156 -40.304688 36.160156 -42.734375 37.734375 -45.203125 C 39.316406 -47.671875 40.109375 -50.097656 40.109375 -52.484375 C 40.109375 -59.648438 36.066406 -63.234375 27.984375 -63.234375 C 24.046875 -63.234375 20.171875 -62.539062 16.359375 -61.15625 C 12.546875 -59.769531 9.019531 -57.84375 5.78125 -55.375 L 5.78125 -74.921875 C 9.25 -77.304688 13.296875 -79.171875 17.921875 -80.515625 C 22.546875 -81.867188 27.476562 -82.546875 32.71875 -82.546875 C 38.726562 -82.546875 43.929688 -81.425781 48.328125 -79.1875 C 52.722656 -76.957031 56.070312 -73.875 58.375 -69.9375 C 60.6875 -66.007812 61.84375 -61.582031 61.84375 -56.65625 C 61.84375 -50.71875 60.472656 -45.53125 57.734375 -41.09375 C 55.003906 -36.664062 50.597656 -31.675781 44.515625 -26.125 L 34.21875 -16.765625 L 64.390625 -16.765625 L 64.390625 0 L 2.890625 0 Z M 2.890625 -11.671875 "/></g></g></g><g fill="#f7b519" fill-opacity="1"><g transform="translate(260.748473, 224.355209)"><g><path d="M 27.859375 1.734375 C 23.234375 1.734375 18.644531 1.234375 14.09375 0.234375 C 9.550781 -0.765625 5.816406 -2.15625 2.890625 -3.9375 L 2.890625 -21.84375 C 6.359375 -19.613281 10.269531 -17.863281 14.625 -16.59375 C 18.976562 -15.320312 23.082031 -14.6875 26.9375 -14.6875 C 32.332031 -14.6875 36.335938 -15.722656 38.953125 -17.796875 C 41.578125 -19.878906 42.890625 -22.734375 42.890625 -26.359375 C 42.890625 -29.828125 41.554688 -32.523438 38.890625 -34.453125 C 36.234375 -36.378906 32.519531 -37.34375 27.75 -37.34375 C 25.050781 -37.34375 22.21875 -37.09375 19.25 -36.59375 C 16.28125 -36.09375 13.71875 -35.378906 11.5625 -34.453125 L 3.703125 -38.953125 L 6.9375 -80.8125 L 58.734375 -80.8125 L 58.734375 -64.046875 L 26.703125 -64.046875 L 25.671875 -51.328125 C 29.210938 -52.253906 32.988281 -52.71875 37 -52.71875 C 45.394531 -52.71875 51.960938 -50.5 56.703125 -46.0625 C 61.441406 -41.632812 63.8125 -35.257812 63.8125 -26.9375 C 63.8125 -17.914062 60.765625 -10.878906 54.671875 -5.828125 C 48.585938 -0.785156 39.648438 1.734375 27.859375 1.734375 Z M 27.859375 1.734375 "/></g></g></g><g clip-path="url(#164493883e)"><g clip-path="url(#7054267e00)"><path fill="#f7b519" d="M 185.078125 266.242188 L 310.542969 266.242188 L 310.542969 279.074219 L 185.078125 279.074219 Z M 185.078125 266.242188 " fill-opacity="1" fill-rule="nonzero"/></g></g><g clip-path="url(#7a3ef3bfb9)"><g clip-path="url(#9128947927)"><g clip-path="url(#a33b9d1edf)"><path fill="#f7b519" d="M 51.644531 272.003906 L 68.089844 243.332031 L 101.125 262.28125 L 84.683594 290.949219 Z M 51.644531 272.003906 " fill-opacity="1" fill-rule="nonzero"/></g></g></g><g clip-path="url(#d2a200ac27)"><g clip-path="url(#447d570f02)"><g clip-path="url(#469e56f46b)"><path fill="#f7b519" d="M 52.875 308.613281 L 27.316406 287.660156 L 51.464844 258.207031 L 77.023438 279.164062 Z M 52.875 308.613281 " fill-opacity="1" fill-rule="nonzero"/></g></g></g><g clip-path="url(#c8475047e5)"><g clip-path="url(#cf0c5b09fd)"><g clip-path="url(#5b12f998c2)"><path fill="#f7b519" d="M 75.507812 319.730469 L 45.074219 332.621094 L 30.21875 297.550781 L 60.65625 284.660156 Z M 75.507812 319.730469 " fill-opacity="1" fill-rule="nonzero"/></g></g></g><g clip-path="url(#83afcc0ffc)"><g clip-path="url(#3889d26aa0)"><g clip-path="url(#a4e2705e96)"><path fill="#f7b519" d="M 94.101562 303.597656 L 90.402344 336.441406 L 52.558594 332.179688 L 56.257812 299.335938 Z M 94.101562 303.597656 " fill-opacity="1" fill-rule="nonzero"/></g></g></g><g clip-path="url(#f760ac37f5)"><g clip-path="url(#5823b278a8)"><path fill="#f7b519" d="M 146.148438 336.148438 L 146.148438 280.210938 L 159.261719 280.210938 L 159.261719 336.148438 Z M 146.148438 336.148438 " fill-opacity="1" fill-rule="nonzero"/></g></g><g clip-path="url(#976052145b)"><g clip-path="url(#5d46a19ace)"><path fill="#f7b519" d="M 168.96875 323.734375 L 168.96875 265.394531 L 182.082031 265.394531 L 182.082031 323.734375 Z M 168.96875 323.734375 " fill-opacity="1" fill-rule="nonzero"/></g></g><g clip-path="url(#34db3f3a14)"><g clip-path="url(#f724b8950d)"><g clip-path="url(#d74c7c2e37)"><path fill="#f7b519" d="M 174.65625 317.667969 L 144.839844 297.203125 L 152.257812 286.390625 L 182.078125 306.855469 Z M 174.65625 317.667969 " fill-opacity="1" fill-rule="nonzero"/></g></g></g><g clip-path="url(#344ff4a262)"><g clip-path="url(#1bd5b68581)"><path fill="#f7b519" d="M 207.703125 333.589844 L 207.703125 270.332031 L 220.816406 270.332031 L 220.816406 333.589844 Z M 207.703125 333.589844 " fill-opacity="1" fill-rule="nonzero"/></g></g><g clip-path="url(#ae38c5fc3e)"><g clip-path="url(#d715ff66de)"><path fill="#f7b519" d="M 275.324219 337.492188 L 275.324219 270.335938 L 288.4375 270.335938 L 288.4375 337.492188 Z M 275.324219 337.492188 " fill-opacity="1" fill-rule="nonzero"/></g></g><g clip-path="url(#0797465c70)"><g clip-path="url(#0ddb1a4c22)"><path fill="#ff6b00" d="M 222.230469 280.996094 L 254.054688 280.996094 L 254.054688 288.21875 L 222.230469 288.21875 Z M 222.230469 280.996094 " fill-opacity="1" fill-rule="nonzero"/></g></g><g clip-path="url(#c9e482c650)"><g clip-path="url(#2df2be2c29)"><path fill="#ff6b00" d="M 231.578125 322.394531 L 231.578125 283.039062 L 239.882812 283.039062 L 239.882812 322.394531 Z M 231.578125 322.394531 " fill-opacity="1" fill-rule="nonzero"/></g></g><g clip-path="url(#4710e1239a)"><g clip-path="url(#1125c0b89b)"><path fill="#ff6b00" d="M 233.675781 315.179688 L 252.40625 315.179688 L 252.40625 322.402344 L 233.675781 322.402344 Z M 233.675781 315.179688 " fill-opacity="1" fill-rule="nonzero"/></g></g><g clip-path="url(#5968df3f2d)"><path fill="#ff6b00" d="M 231.574219 316.585938 L 243.050781 316.585938 L 243.050781 322.402344 L 231.574219 322.402344 Z M 231.574219 316.585938 " fill-opacity="1" fill-rule="nonzero"/></g><g clip-path="url(#4ba20d296e)"><g clip-path="url(#acfb29c1d6)"><path fill="#ff6b00" d="M 247.820312 296.71875 L 247.820312 307.246094 L 238.621094 307.246094 L 238.621094 296.71875 Z M 247.820312 296.71875 " fill-opacity="1" fill-rule="nonzero"/></g></g><g clip-path="url(#76c7c95729)"><g clip-path="url(#3a0ef06c19)"><g clip-path="url(#c0a108491a)"><path fill="#ff4d00" d="M 244.519531 298.808594 L 298.472656 251.621094 L 302.945312 256.730469 L 248.988281 303.917969 Z M 244.519531 298.808594 " fill-opacity="1" fill-rule="nonzero"/></g></g></g><g clip-path="url(#67e38a6c04)"><g clip-path="url(#0f6bf24e97)"><g clip-path="url(#366b1c448e)"><path fill="#ff4d00" d="M 224.839844 328.765625 L 268.53125 290.554688 L 273.003906 295.664062 L 229.3125 333.875 Z M 224.839844 328.765625 " fill-opacity="1" fill-rule="nonzero"/></g></g></g><g clip-path="url(#363ab5df5b)"><g clip-path="url(#44d9bc42e0)"><g clip-path="url(#9c91a6883a)"><path stroke-linecap="butt" transform="matrix(0.658072, 0.359779, -0.359779, 0.658072, 112.917808, 288.218859)" fill="none" stroke-linejoin="miter" d="M 0.000118221 -0.000229772 L 43.968493 0.00194931 L 43.970883 43.967825 L -0.00206086 43.968145 Z M 0.000118221 -0.000229772 " stroke="#f7b519" stroke-width="32" stroke-opacity="1" stroke-miterlimit="4"/></g></g></g><g clip-path="url(#f6e4d19e86)"><g clip-path="url(#7e3661a9d1)"><path fill="#f7b519" d="M 115.523438 150.320312 L 189.886719 150.320312 L 189.886719 224.679688 L 115.523438 224.679688 Z M 115.523438 150.320312 " fill-opacity="1" fill-rule="nonzero"/></g></g><g clip-path="url(#91b7f9213f)"><g clip-path="url(#abfbe908ff)"><g clip-path="url(#e9dd48225b)"><path fill="#ac6ad6" d="M 303.203125 267.003906 L 312.589844 338.621094 L 303.949219 339.753906 L 294.5625 268.136719 Z M 303.203125 267.003906 " fill-opacity="1" fill-rule="nonzero"/></g></g></g><g clip-path="url(#f7ad3c43bf)"><g clip-path="url(#a44056d261)"><g clip-path="url(#1918a5060f)"><path fill="#ff4d00" d="M 363.617188 288.523438 L 269.234375 293.742188 L 268.835938 286.542969 L 363.222656 281.324219 Z M 363.617188 288.523438 " fill-opacity="1" fill-rule="nonzero"/></g></g></g><g clip-path="url(#a0f13770b9)"><g clip-path="url(#576b1161b5)"><g clip-path="url(#e06e84b0f9)"><path fill="#ac6ad6" d="M 349.0625 322.039062 L 287.164062 330.191406 L 286.179688 322.722656 L 348.078125 314.570312 Z M 349.0625 322.039062 " fill-opacity="1" fill-rule="nonzero"/></g></g></g><g clip-path="url(#ab08544855)"><g clip-path="url(#2570927ce6)"><g clip-path="url(#345cf8556a)"><path fill="#ac6ad6" d="M 285.753906 347.179688 L 297.949219 342.667969 L 302.464844 354.867188 L 290.265625 359.378906 Z M 285.753906 347.179688 " fill-opacity="1" fill-rule="nonzero"/></g></g></g><path stroke-linecap="butt" transform="matrix(0.688849, 0.296625, -0.296625, 0.688849, 295.740631, 348.830075)" fill="none" stroke-linejoin="miter" d="M 0.000927708 4.000276 L 29.85199 4.001575 " stroke="#ac6ad6" stroke-width="8" stroke-opacity="1" stroke-miterlimit="4"/><g clip-path="url(#9fb1950353)"><g clip-path="url(#e73a390ece)"><g clip-path="url(#9088eb269b)"><path fill="#ac6ad6" d="M 307.296875 356.84375 L 319.496094 352.332031 L 324.007812 364.527344 L 311.8125 369.042969 Z M 307.296875 356.84375 " fill-opacity="1" fill-rule="nonzero"/></g></g></g><g clip-path="url(#a801a7b812)"><g clip-path="url(#1c274c47a0)"><g clip-path="url(#8f5d99864a)"><path fill="#ac6ad6" d="M 328.894531 343.144531 L 341.089844 338.632812 L 345.605469 350.828125 L 333.40625 355.34375 Z M 328.894531 343.144531 " fill-opacity="1" fill-rule="nonzero"/></g></g></g><g clip-path="url(#2be05a8461)"><g clip-path="url(#eb813e5ab9)"><g clip-path="url(#4f61872388)"><path fill="#ac6ad6" d="M 328.910156 319.691406 L 341.109375 315.179688 L 345.621094 327.375 L 333.425781 331.890625 Z M 328.910156 319.691406 " fill-opacity="1" fill-rule="nonzero"/></g></g></g><path stroke-linecap="butt" transform="matrix(0.63562, -0.398105, 0.398105, 0.63562, 314.641244, 358.347778)" fill="none" stroke-linejoin="miter" d="M 0.000541457 4.000919 L 31.700568 3.999115 " stroke="#ac6ad6" stroke-width="8" stroke-opacity="1" stroke-miterlimit="4"/><path stroke-linecap="butt" transform="matrix(0.00133446, 0.749999, -0.749999, 0.00133446, 340.246564, 324.540447)" fill="none" stroke-linejoin="miter" d="M 0.00145284 4.000636 L 27.17337 4.002107 " stroke="#ac6ad6" stroke-width="8" stroke-opacity="1" stroke-miterlimit="4"/></svg>