<svg xmlns="http://www.w3.org/2000/svg" xmlns:xlink="http://www.w3.org/1999/xlink" width="500" zoomAndPan="magnify" viewBox="0 0 375 374.999991" height="500" preserveAspectRatio="xMidYMid meet" version="1.0"><defs><g/><clipPath id="01b789024b"><path d="M 33.46875 37.5 L 91.40625 37.5 L 91.40625 124.40625 L 33.46875 124.40625 Z M 33.46875 37.5 " clip-rule="nonzero"/></clipPath><clipPath id="56f03ac36c"><path d="M 62.5 37.5 L 33.46875 37.5 L 62.378906 124.222656 L 91.40625 124.222656 Z M 62.5 37.5 " clip-rule="nonzero"/></clipPath><clipPath id="d153e3875c"><path d="M 182.121094 37.5 L 268.839844 37.5 L 268.839844 124.21875 L 182.121094 124.21875 Z M 182.121094 37.5 " clip-rule="nonzero"/></clipPath><clipPath id="05a8564320"><path d="M 225.480469 37.5 C 201.535156 37.5 182.121094 56.914062 182.121094 80.859375 C 182.121094 104.804688 201.535156 124.21875 225.480469 124.21875 C 249.425781 124.21875 268.839844 104.804688 268.839844 80.859375 C 268.839844 56.914062 249.425781 37.5 225.480469 37.5 Z M 225.480469 37.5 " clip-rule="nonzero"/></clipPath><clipPath id="2871183b6e"><path d="M 294.34375 37.5 L 326.957031 37.5 L 326.957031 124.222656 L 294.34375 124.222656 Z M 294.34375 37.5 " clip-rule="nonzero"/></clipPath><clipPath id="75abe4f279"><path d="M 283.800781 37.5 L 337.5 37.5 L 337.5 57.898438 L 283.800781 57.898438 Z M 283.800781 37.5 " clip-rule="nonzero"/></clipPath><clipPath id="2af94769b2"><path d="M 283.800781 103.820312 L 337.5 103.820312 L 337.5 124.222656 L 283.800781 124.222656 Z M 283.800781 103.820312 " clip-rule="nonzero"/></clipPath><clipPath id="18bc532967"><path d="M 62.4375 37.5 L 120.375 37.5 L 120.375 124.40625 L 62.4375 124.40625 Z M 62.4375 37.5 " clip-rule="nonzero"/></clipPath><clipPath id="79ba23ae72"><path d="M 90.5625 37.5 L 120.375 37.5 L 92.25 124.222656 L 62.4375 124.222656 Z M 90.5625 37.5 " clip-rule="nonzero"/></clipPath><clipPath id="eb79cccdf5"><path d="M 120.375 37.5 L 178.3125 37.5 L 178.3125 124.40625 L 120.375 124.40625 Z M 120.375 37.5 " clip-rule="nonzero"/></clipPath><clipPath id="bf6ace1b76"><path d="M 148.5 37.5 L 178.3125 37.5 L 150.1875 124.222656 L 120.375 124.222656 Z M 148.5 37.5 " clip-rule="nonzero"/></clipPath><clipPath id="855514bd2b"><path d="M 91.40625 37.5 L 149.34375 37.5 L 149.34375 124.40625 L 91.40625 124.40625 Z M 91.40625 37.5 " clip-rule="nonzero"/></clipPath><clipPath id="6c7578761e"><path d="M 120.4375 37.5 L 91.40625 37.5 L 120.316406 124.222656 L 149.34375 124.222656 Z M 120.4375 37.5 " clip-rule="nonzero"/></clipPath><clipPath id="4ca5863d95"><path d="M 185.078125 266.242188 L 310.59375 266.242188 L 310.59375 279.074219 L 185.078125 279.074219 Z M 185.078125 266.242188 " clip-rule="nonzero"/></clipPath><clipPath id="7ea24ee692"><path d="M 198.277344 266.242188 L 310.5625 266.242188 L 297.363281 279.074219 L 185.078125 279.074219 Z M 198.277344 266.242188 " clip-rule="nonzero"/></clipPath><clipPath id="48c422648a"><path d="M 51 254 L 102 254 L 102 280 L 51 280 Z M 51 254 " clip-rule="nonzero"/></clipPath><clipPath id="647a50bf97"><path d="M 51.644531 272.003906 L 68.089844 243.332031 L 101.238281 262.34375 L 84.796875 291.015625 Z M 51.644531 272.003906 " clip-rule="nonzero"/></clipPath><clipPath id="c7d745b50e"><path d="M 61.765625 254.359375 L 51.644531 272.003906 L 91.039062 279.945312 L 101.160156 262.300781 Z M 61.765625 254.359375 " clip-rule="nonzero"/></clipPath><clipPath id="239a561d95"><path d="M 37 258 L 68 258 L 68 309 L 37 309 Z M 37 258 " clip-rule="nonzero"/></clipPath><clipPath id="b0735f5aee"><path d="M 52.875 308.613281 L 27.316406 287.660156 L 51.546875 258.109375 L 77.105469 279.0625 Z M 52.875 308.613281 " clip-rule="nonzero"/></clipPath><clipPath id="9f5ecb6497"><path d="M 37.144531 295.71875 L 52.875 308.613281 L 67.21875 271.074219 L 51.488281 258.179688 Z M 37.144531 295.71875 " clip-rule="nonzero"/></clipPath><clipPath id="2c804c772a"><path d="M 30 289 L 76 289 L 76 328 L 30 328 Z M 30 289 " clip-rule="nonzero"/></clipPath><clipPath id="b952454e39"><path d="M 75.507812 319.730469 L 45.074219 332.621094 L 30.171875 297.429688 L 60.605469 284.542969 Z M 75.507812 319.730469 " clip-rule="nonzero"/></clipPath><clipPath id="edc0a4de62"><path d="M 56.773438 327.664062 L 75.507812 319.730469 L 48.9375 289.582031 L 30.207031 297.511719 Z M 56.773438 327.664062 " clip-rule="nonzero"/></clipPath><clipPath id="4720b0314d"><path d="M 52 303 L 95 303 L 95 333 L 52 333 Z M 52 303 " clip-rule="nonzero"/></clipPath><clipPath id="47723de256"><path d="M 94.101562 303.597656 L 90.402344 336.441406 L 52.429688 332.164062 L 56.128906 299.320312 Z M 94.101562 303.597656 " clip-rule="nonzero"/></clipPath><clipPath id="e16b3ca4dd"><path d="M 91.824219 323.8125 L 94.101562 303.597656 L 54.796875 311.960938 L 52.519531 332.175781 Z M 91.824219 323.8125 " clip-rule="nonzero"/></clipPath><clipPath id="48ac56fce3"><path d="M 146.148438 280.160156 L 159.261719 280.160156 L 159.261719 336.148438 L 146.148438 336.148438 Z M 146.148438 280.160156 " clip-rule="nonzero"/></clipPath><clipPath id="c51a263153"><path d="M 146.148438 288.167969 L 146.148438 336.148438 L 159.261719 328.171875 L 159.261719 280.191406 Z M 146.148438 288.167969 " clip-rule="nonzero"/></clipPath><clipPath id="76d35e541c"><path d="M 168.96875 265.339844 L 182.082031 265.339844 L 182.082031 323.734375 L 168.96875 323.734375 Z M 168.96875 265.339844 " clip-rule="nonzero"/></clipPath><clipPath id="02fff07492"><path d="M 168.96875 273.347656 L 168.96875 323.734375 L 182.082031 315.757812 L 182.082031 265.371094 Z M 168.96875 273.347656 " clip-rule="nonzero"/></clipPath><clipPath id="f2081fbfbd"><path d="M 151 286 L 176 286 L 176 318 L 151 318 Z M 151 286 " clip-rule="nonzero"/></clipPath><clipPath id="00181dc5c8"><path d="M 174.65625 317.667969 L 144.839844 297.203125 L 152.257812 286.390625 L 182.078125 306.855469 Z M 174.65625 317.667969 " clip-rule="nonzero"/></clipPath><clipPath id="b2d9bfa418"><path d="M 151.429688 301.726562 L 174.65625 317.667969 L 175.5 302.339844 L 152.273438 286.402344 Z M 151.429688 301.726562 " clip-rule="nonzero"/></clipPath><clipPath id="e52f619797"><path d="M 207.703125 270.332031 L 220.816406 270.332031 L 220.816406 333.589844 L 207.703125 333.589844 Z M 207.703125 270.332031 " clip-rule="nonzero"/></clipPath><clipPath id="016bf8e5cf"><path d="M 207.703125 278.308594 L 207.703125 333.589844 L 220.816406 325.613281 L 220.816406 270.332031 Z M 207.703125 278.308594 " clip-rule="nonzero"/></clipPath><clipPath id="2adfeed291"><path d="M 275.324219 270.285156 L 288.4375 270.285156 L 288.4375 337.492188 L 275.324219 337.492188 Z M 275.324219 270.285156 " clip-rule="nonzero"/></clipPath><clipPath id="19e11d40de"><path d="M 275.324219 278.3125 L 275.324219 337.492188 L 288.4375 329.515625 L 288.4375 270.335938 Z M 275.324219 278.3125 " clip-rule="nonzero"/></clipPath><clipPath id="ba4c38951b"><path d="M 222.230469 280.996094 L 254.054688 280.996094 L 254.054688 288.21875 L 222.230469 288.21875 Z M 222.230469 280.996094 " clip-rule="nonzero"/></clipPath><clipPath id="15f4bd687a"><path d="M 244.671875 280.996094 L 222.230469 280.996094 L 231.601562 288.21875 L 254.042969 288.21875 Z M 244.671875 280.996094 " clip-rule="nonzero"/></clipPath><clipPath id="a8d811ebd1"><path d="M 231.578125 283.007812 L 239.882812 283.007812 L 239.882812 322.394531 L 231.578125 322.394531 Z M 231.578125 283.007812 " clip-rule="nonzero"/></clipPath><clipPath id="466f4c9213"><path d="M 231.578125 287.523438 L 231.578125 322.394531 L 239.882812 317.910156 L 239.882812 283.039062 Z M 231.578125 287.523438 " clip-rule="nonzero"/></clipPath><clipPath id="5c1996d763"><path d="M 233.675781 315.179688 L 252.433594 315.179688 L 252.433594 322.402344 L 233.675781 322.402344 Z M 233.675781 315.179688 " clip-rule="nonzero"/></clipPath><clipPath id="ae9bec0d76"><path d="M 243.046875 315.179688 L 233.675781 315.179688 L 243.046875 322.402344 L 252.414062 322.402344 Z M 243.046875 315.179688 " clip-rule="nonzero"/></clipPath><clipPath id="3835c60eb3"><path d="M 231.574219 316.585938 L 243.046875 316.585938 L 243.046875 322.402344 L 231.574219 322.402344 Z M 231.574219 316.585938 " clip-rule="nonzero"/></clipPath><clipPath id="60a7662c67"><path d="M 238.621094 296.71875 L 247.820312 296.71875 L 247.820312 307.246094 L 238.621094 307.246094 Z M 238.621094 296.71875 " clip-rule="nonzero"/></clipPath><clipPath id="15401672b5"><path d="M 247.820312 301.972656 L 238.621094 307.230469 L 238.621094 296.71875 Z M 247.820312 301.972656 " clip-rule="nonzero"/></clipPath><clipPath id="38e3e86942"><path d="M 244 256 L 303 256 L 303 300 L 244 300 Z M 244 256 " clip-rule="nonzero"/></clipPath><clipPath id="25b6a551b2"><path d="M 244.519531 298.808594 L 298.472656 251.621094 L 302.945312 256.730469 L 248.988281 303.917969 Z M 244.519531 298.808594 " clip-rule="nonzero"/></clipPath><clipPath id="7ea3f532eb"><path d="M 293.289062 256.15625 L 244.519531 298.808594 L 254.175781 299.386719 L 302.945312 256.730469 Z M 293.289062 256.15625 " clip-rule="nonzero"/></clipPath><clipPath id="0a4a344d03"><path d="M 224 295 L 274 295 L 274 330 L 224 330 Z M 224 295 " clip-rule="nonzero"/></clipPath><clipPath id="6d9fd6929e"><path d="M 224.839844 328.765625 L 268.53125 290.554688 L 273.003906 295.664062 L 229.3125 333.875 Z M 224.839844 328.765625 " clip-rule="nonzero"/></clipPath><clipPath id="8a6b3e188a"><path d="M 263.347656 295.089844 L 224.839844 328.765625 L 234.496094 329.34375 L 273.003906 295.667969 Z M 263.347656 295.089844 " clip-rule="nonzero"/></clipPath><clipPath id="3211da0ae0"><path d="M 97 288 L 142 288 L 142 333 L 97 333 Z M 97 288 " clip-rule="nonzero"/></clipPath><clipPath id="7eceb5a187"><path d="M 112.917969 288.21875 L 141.871094 304.050781 L 126.042969 333.003906 L 97.085938 317.175781 Z M 112.917969 288.21875 " clip-rule="nonzero"/></clipPath><clipPath id="1012cbaa4c"><path d="M 112.917969 288.21875 L 141.851562 304.039062 L 126.035156 332.972656 L 97.097656 317.152344 Z M 112.917969 288.21875 " clip-rule="nonzero"/></clipPath><clipPath id="4a699c38a8"><path d="M 115.523438 150.320312 L 189.886719 150.320312 L 189.886719 224.679688 L 115.523438 224.679688 Z M 115.523438 150.320312 " clip-rule="nonzero"/></clipPath><clipPath id="84741a352c"><path d="M 152.703125 150.320312 L 164.535156 175.667969 L 189.886719 187.5 L 164.535156 199.332031 L 152.703125 224.679688 L 140.875 199.332031 L 115.523438 187.5 L 140.875 175.667969 Z M 152.703125 150.320312 " clip-rule="nonzero"/></clipPath></defs><g clip-path="url(#01b789024b)"><g clip-path="url(#56f03ac36c)"><path fill="#ac6ad6" d="M 33.46875 37.5 L 91.40625 37.5 L 91.40625 124.179688 L 33.46875 124.179688 Z M 33.46875 37.5 " fill-opacity="1" fill-rule="nonzero"/></g></g><g clip-path="url(#d153e3875c)"><g clip-path="url(#05a8564320)"><path stroke-linecap="butt" transform="matrix(0.75, 0, 0, 0.75, 182.121014, 37.499998)" fill="none" stroke-linejoin="miter" d="M 57.81261 0.00000328333 C 25.885525 0.00000328333 0.000106146 25.885422 0.000106146 57.812507 C 0.000106146 89.739593 25.885525 115.625011 57.81261 115.625011 C 89.739695 115.625011 115.625114 89.739593 115.625114 57.812507 C 115.625114 25.885422 89.739695 0.00000328333 57.81261 0.00000328333 Z M 57.81261 0.00000328333 " stroke="#f7b519" stroke-width="70" stroke-opacity="1" stroke-miterlimit="4"/></g></g><g clip-path="url(#2871183b6e)"><path fill="#f37321" d="M 294.34375 37.5 L 326.957031 37.5 L 326.957031 124.265625 L 294.34375 124.265625 Z M 294.34375 37.5 " fill-opacity="1" fill-rule="nonzero"/></g><g clip-path="url(#75abe4f279)"><path fill="#f37321" d="M 283.800781 37.5 L 337.507812 37.5 L 337.507812 57.898438 L 283.800781 57.898438 Z M 283.800781 37.5 " fill-opacity="1" fill-rule="nonzero"/></g><g clip-path="url(#2af94769b2)"><path fill="#f37321" d="M 283.800781 103.820312 L 337.507812 103.820312 L 337.507812 124.222656 L 283.800781 124.222656 Z M 283.800781 103.820312 " fill-opacity="1" fill-rule="nonzero"/></g><g clip-path="url(#18bc532967)"><g clip-path="url(#79ba23ae72)"><path fill="#ac6ad6" d="M 62.4375 37.5 L 120.375 37.5 L 120.375 124.179688 L 62.4375 124.179688 Z M 62.4375 37.5 " fill-opacity="1" fill-rule="nonzero"/></g></g><g clip-path="url(#eb79cccdf5)"><g clip-path="url(#bf6ace1b76)"><path fill="#ac6ad6" d="M 120.375 37.5 L 178.3125 37.5 L 178.3125 124.179688 L 120.375 124.179688 Z M 120.375 37.5 " fill-opacity="1" fill-rule="nonzero"/></g></g><g clip-path="url(#855514bd2b)"><g clip-path="url(#6c7578761e)"><path fill="#ac6ad6" d="M 91.40625 37.5 L 149.34375 37.5 L 149.34375 124.179688 L 91.40625 124.179688 Z M 91.40625 37.5 " fill-opacity="1" fill-rule="nonzero"/></g></g><g fill="#f7b519" fill-opacity="1"><g transform="translate(47.531457, 224.355209)"><g><path d="M 2.890625 -11.671875 L 15.71875 -23.359375 L 21.265625 -28.328125 C 25.816406 -32.335938 29.304688 -35.535156 31.734375 -37.921875 C 34.160156 -40.304688 36.160156 -42.734375 37.734375 -45.203125 C 39.316406 -47.671875 40.109375 -50.097656 40.109375 -52.484375 C 40.109375 -59.648438 36.066406 -63.234375 27.984375 -63.234375 C 24.046875 -63.234375 20.171875 -62.539062 16.359375 -61.15625 C 12.546875 -59.769531 9.019531 -57.84375 5.78125 -55.375 L 5.78125 -74.921875 C 9.25 -77.304688 13.296875 -79.171875 17.921875 -80.515625 C 22.546875 -81.867188 27.476562 -82.546875 32.71875 -82.546875 C 38.726562 -82.546875 43.929688 -81.425781 48.328125 -79.1875 C 52.722656 -76.957031 56.070312 -73.875 58.375 -69.9375 C 60.6875 -66.007812 61.84375 -61.582031 61.84375 -56.65625 C 61.84375 -50.71875 60.472656 -45.53125 57.734375 -41.09375 C 55.003906 -36.664062 50.597656 -31.675781 44.515625 -26.125 L 34.21875 -16.765625 L 64.390625 -16.765625 L 64.390625 0 L 2.890625 0 Z M 2.890625 -11.671875 "/></g></g></g><g fill="#f7b519" fill-opacity="1"><g transform="translate(114.839659, 224.355209)"><g/></g></g><g fill="#f7b519" fill-opacity="1"><g transform="translate(154.147987, 224.355209)"><g/></g></g><g fill="#f7b519" fill-opacity="1"><g transform="translate(193.461872, 224.355209)"><g><path d="M 2.890625 -11.671875 L 15.71875 -23.359375 L 21.265625 -28.328125 C 25.816406 -32.335938 29.304688 -35.535156 31.734375 -37.921875 C 34.160156 -40.304688 36.160156 -42.734375 37.734375 -45.203125 C 39.316406 -47.671875 40.109375 -50.097656 40.109375 -52.484375 C 40.109375 -59.648438 36.066406 -63.234375 27.984375 -63.234375 C 24.046875 -63.234375 20.171875 -62.539062 16.359375 -61.15625 C 12.546875 -59.769531 9.019531 -57.84375 5.78125 -55.375 L 5.78125 -74.921875 C 9.25 -77.304688 13.296875 -79.171875 17.921875 -80.515625 C 22.546875 -81.867188 27.476562 -82.546875 32.71875 -82.546875 C 38.726562 -82.546875 43.929688 -81.425781 48.328125 -79.1875 C 52.722656 -76.957031 56.070312 -73.875 58.375 -69.9375 C 60.6875 -66.007812 61.84375 -61.582031 61.84375 -56.65625 C 61.84375 -50.71875 60.472656 -45.53125 57.734375 -41.09375 C 55.003906 -36.664062 50.597656 -31.675781 44.515625 -26.125 L 34.21875 -16.765625 L 64.390625 -16.765625 L 64.390625 0 L 2.890625 0 Z M 2.890625 -11.671875 "/></g></g></g><g fill="#f7b519" fill-opacity="1"><g transform="translate(260.748473, 224.355209)"><g><path d="M 27.859375 1.734375 C 23.234375 1.734375 18.644531 1.234375 14.09375 0.234375 C 9.550781 -0.765625 5.816406 -2.15625 2.890625 -3.9375 L 2.890625 -21.84375 C 6.359375 -19.613281 10.269531 -17.863281 14.625 -16.59375 C 18.976562 -15.320312 23.082031 -14.6875 26.9375 -14.6875 C 32.332031 -14.6875 36.335938 -15.722656 38.953125 -17.796875 C 41.578125 -19.878906 42.890625 -22.734375 42.890625 -26.359375 C 42.890625 -29.828125 41.554688 -32.523438 38.890625 -34.453125 C 36.234375 -36.378906 32.519531 -37.34375 27.75 -37.34375 C 25.050781 -37.34375 22.21875 -37.09375 19.25 -36.59375 C 16.28125 -36.09375 13.71875 -35.378906 11.5625 -34.453125 L 3.703125 -38.953125 L 6.9375 -80.8125 L 58.734375 -80.8125 L 58.734375 -64.046875 L 26.703125 -64.046875 L 25.671875 -51.328125 C 29.210938 -52.253906 32.988281 -52.71875 37 -52.71875 C 45.394531 -52.71875 51.960938 -50.5 56.703125 -46.0625 C 61.441406 -41.632812 63.8125 -35.257812 63.8125 -26.9375 C 63.8125 -17.914062 60.765625 -10.878906 54.671875 -5.828125 C 48.585938 -0.785156 39.648438 1.734375 27.859375 1.734375 Z M 27.859375 1.734375 "/></g></g></g><g clip-path="url(#4ca5863d95)"><g clip-path="url(#7ea24ee692)"><path fill="#f7b519" d="M 185.078125 266.242188 L 310.542969 266.242188 L 310.542969 279.074219 L 185.078125 279.074219 Z M 185.078125 266.242188 " fill-opacity="1" fill-rule="nonzero"/></g></g><g clip-path="url(#48c422648a)"><g clip-path="url(#647a50bf97)"><g clip-path="url(#c7d745b50e)"><path fill="#f7b519" d="M 51.644531 272.003906 L 68.089844 243.332031 L 101.125 262.28125 L 84.683594 290.949219 Z M 51.644531 272.003906 " fill-opacity="1" fill-rule="nonzero"/></g></g></g><g clip-path="url(#239a561d95)"><g clip-path="url(#b0735f5aee)"><g clip-path="url(#9f5ecb6497)"><path fill="#f7b519" d="M 52.875 308.613281 L 27.316406 287.660156 L 51.464844 258.207031 L 77.023438 279.164062 Z M 52.875 308.613281 " fill-opacity="1" fill-rule="nonzero"/></g></g></g><g clip-path="url(#2c804c772a)"><g clip-path="url(#b952454e39)"><g clip-path="url(#edc0a4de62)"><path fill="#f7b519" d="M 75.507812 319.730469 L 45.074219 332.621094 L 30.21875 297.550781 L 60.65625 284.660156 Z M 75.507812 319.730469 " fill-opacity="1" fill-rule="nonzero"/></g></g></g><g clip-path="url(#4720b0314d)"><g clip-path="url(#47723de256)"><g clip-path="url(#e16b3ca4dd)"><path fill="#f7b519" d="M 94.101562 303.597656 L 90.402344 336.441406 L 52.558594 332.179688 L 56.257812 299.335938 Z M 94.101562 303.597656 " fill-opacity="1" fill-rule="nonzero"/></g></g></g><g clip-path="url(#48ac56fce3)"><g clip-path="url(#c51a263153)"><path fill="#f7b519" d="M 146.148438 336.148438 L 146.148438 280.210938 L 159.261719 280.210938 L 159.261719 336.148438 Z M 146.148438 336.148438 " fill-opacity="1" fill-rule="nonzero"/></g></g><g clip-path="url(#76d35e541c)"><g clip-path="url(#02fff07492)"><path fill="#f7b519" d="M 168.96875 323.734375 L 168.96875 265.394531 L 182.082031 265.394531 L 182.082031 323.734375 Z M 168.96875 323.734375 " fill-opacity="1" fill-rule="nonzero"/></g></g><g clip-path="url(#f2081fbfbd)"><g clip-path="url(#00181dc5c8)"><g clip-path="url(#b2d9bfa418)"><path fill="#f7b519" d="M 174.65625 317.667969 L 144.839844 297.203125 L 152.257812 286.390625 L 182.078125 306.855469 Z M 174.65625 317.667969 " fill-opacity="1" fill-rule="nonzero"/></g></g></g><g clip-path="url(#e52f619797)"><g clip-path="url(#016bf8e5cf)"><path fill="#f7b519" d="M 207.703125 333.589844 L 207.703125 270.332031 L 220.816406 270.332031 L 220.816406 333.589844 Z M 207.703125 333.589844 " fill-opacity="1" fill-rule="nonzero"/></g></g><g clip-path="url(#2adfeed291)"><g clip-path="url(#19e11d40de)"><path fill="#f7b519" d="M 275.324219 337.492188 L 275.324219 270.335938 L 288.4375 270.335938 L 288.4375 337.492188 Z M 275.324219 337.492188 " fill-opacity="1" fill-rule="nonzero"/></g></g><g clip-path="url(#ba4c38951b)"><g clip-path="url(#15f4bd687a)"><path fill="#ff6b00" d="M 222.230469 280.996094 L 254.054688 280.996094 L 254.054688 288.21875 L 222.230469 288.21875 Z M 222.230469 280.996094 " fill-opacity="1" fill-rule="nonzero"/></g></g><g clip-path="url(#a8d811ebd1)"><g clip-path="url(#466f4c9213)"><path fill="#ff6b00" d="M 231.578125 322.394531 L 231.578125 283.039062 L 239.882812 283.039062 L 239.882812 322.394531 Z M 231.578125 322.394531 " fill-opacity="1" fill-rule="nonzero"/></g></g><g clip-path="url(#5c1996d763)"><g clip-path="url(#ae9bec0d76)"><path fill="#ff6b00" d="M 233.675781 315.179688 L 252.40625 315.179688 L 252.40625 322.402344 L 233.675781 322.402344 Z M 233.675781 315.179688 " fill-opacity="1" fill-rule="nonzero"/></g></g><g clip-path="url(#3835c60eb3)"><path fill="#ff6b00" d="M 231.574219 316.585938 L 243.050781 316.585938 L 243.050781 322.402344 L 231.574219 322.402344 Z M 231.574219 316.585938 " fill-opacity="1" fill-rule="nonzero"/></g><g clip-path="url(#60a7662c67)"><g clip-path="url(#15401672b5)"><path fill="#ff6b00" d="M 247.820312 296.71875 L 247.820312 307.246094 L 238.621094 307.246094 L 238.621094 296.71875 Z M 247.820312 296.71875 " fill-opacity="1" fill-rule="nonzero"/></g></g><g clip-path="url(#38e3e86942)"><g clip-path="url(#25b6a551b2)"><g clip-path="url(#7ea3f532eb)"><path fill="#ff4d00" d="M 244.519531 298.808594 L 298.472656 251.621094 L 302.945312 256.730469 L 248.988281 303.917969 Z M 244.519531 298.808594 " fill-opacity="1" fill-rule="nonzero"/></g></g></g><g clip-path="url(#0a4a344d03)"><g clip-path="url(#6d9fd6929e)"><g clip-path="url(#8a6b3e188a)"><path fill="#ff4d00" d="M 224.839844 328.765625 L 268.53125 290.554688 L 273.003906 295.664062 L 229.3125 333.875 Z M 224.839844 328.765625 " fill-opacity="1" fill-rule="nonzero"/></g></g></g><g clip-path="url(#3211da0ae0)"><g clip-path="url(#7eceb5a187)"><g clip-path="url(#1012cbaa4c)"><path stroke-linecap="butt" transform="matrix(0.658072, 0.359779, -0.359779, 0.658072, 112.917808, 288.218859)" fill="none" stroke-linejoin="miter" d="M 0.000118221 -0.000229772 L 43.968493 0.00194931 L 43.970883 43.967825 L -0.00206086 43.968145 Z M 0.000118221 -0.000229772 " stroke="#f7b519" stroke-width="32" stroke-opacity="1" stroke-miterlimit="4"/></g></g></g><g clip-path="url(#4a699c38a8)"><g clip-path="url(#84741a352c)"><path fill="#f7b519" d="M 115.523438 150.320312 L 189.886719 150.320312 L 189.886719 224.679688 L 115.523438 224.679688 Z M 115.523438 150.320312 " fill-opacity="1" fill-rule="nonzero"/></g></g><g fill="#ff6b00" fill-opacity="1"><g transform="translate(307.450195, 261.622394)"><g><path d="M 31.984375 10.640625 L 25.421875 1.59375 L 36.5 1.59375 L 44.53125 12.546875 L 44.53125 21.90625 L 0 21.90625 L 0 10.640625 Z M 31.984375 10.640625 "/></g></g></g><g fill="#ff6b00" fill-opacity="1"><g transform="translate(296.786469, 325.289348)"><g><path d="M 10.640625 -31.984375 L 1.59375 -25.421875 L 1.59375 -36.5 L 12.546875 -44.53125 L 21.90625 -44.53125 L 21.90625 0 L 10.640625 0 Z M 10.640625 -31.984375 "/></g></g></g><g fill="#f7b519" fill-opacity="1"><g transform="translate(305.942562, 349.446415)"><g><path d="M 26.328125 1.140625 C 21.421875 1.140625 17.117188 0.0390625 13.421875 -2.15625 C 9.734375 -4.363281 6.890625 -7.539062 4.890625 -11.6875 C 2.890625 -15.832031 1.890625 -20.765625 1.890625 -26.484375 C 1.890625 -32.191406 2.875 -37.117188 4.84375 -41.265625 C 6.820312 -45.421875 9.644531 -48.609375 13.3125 -50.828125 C 16.976562 -53.054688 21.316406 -54.171875 26.328125 -54.171875 C 31.335938 -54.171875 35.675781 -53.054688 39.34375 -50.828125 C 43.007812 -48.609375 45.828125 -45.421875 47.796875 -41.265625 C 49.773438 -37.117188 50.765625 -32.191406 50.765625 -26.484375 C 50.765625 -20.765625 49.765625 -15.832031 47.765625 -11.6875 C 45.765625 -7.539062 42.914062 -4.363281 39.21875 -2.15625 C 35.53125 0.0390625 31.234375 1.140625 26.328125 1.140625 Z M 26.328125 -11.453125 C 29.710938 -11.453125 32.34375 -12.765625 34.21875 -15.390625 C 36.09375 -18.023438 37.03125 -21.671875 37.03125 -26.328125 C 37.03125 -31.035156 36.101562 -34.738281 34.25 -37.4375 C 32.40625 -40.144531 29.765625 -41.5 26.328125 -41.5 C 22.890625 -41.5 20.242188 -40.144531 18.390625 -37.4375 C 16.546875 -34.738281 15.625 -31.035156 15.625 -26.328125 C 15.625 -21.671875 16.5625 -18.023438 18.4375 -15.390625 C 20.3125 -12.765625 22.941406 -11.453125 26.328125 -11.453125 Z M 26.328125 -11.453125 "/></g></g></g></svg>