<svg xmlns="http://www.w3.org/2000/svg" xmlns:xlink="http://www.w3.org/1999/xlink" width="500" zoomAndPan="magnify" viewBox="0 0 375 374.999991" height="500" preserveAspectRatio="xMidYMid meet" version="1.0"><defs><g/><clipPath id="63be423034"><path d="M 33.46875 34.390625 L 91.40625 34.390625 L 91.40625 121.296875 L 33.46875 121.296875 Z M 33.46875 34.390625 " clip-rule="nonzero"/></clipPath><clipPath id="0a45635641"><path d="M 62.5 34.390625 L 33.46875 34.390625 L 62.378906 121.113281 L 91.40625 121.113281 Z M 62.5 34.390625 " clip-rule="nonzero"/></clipPath><clipPath id="a059750b80"><path d="M 182.121094 34.390625 L 268.839844 34.390625 L 268.839844 121.109375 L 182.121094 121.109375 Z M 182.121094 34.390625 " clip-rule="nonzero"/></clipPath><clipPath id="6018377f24"><path d="M 225.480469 34.390625 C 201.535156 34.390625 182.121094 53.804688 182.121094 77.75 C 182.121094 101.699219 201.535156 121.109375 225.480469 121.109375 C 249.425781 121.109375 268.839844 101.699219 268.839844 77.75 C 268.839844 53.804688 249.425781 34.390625 225.480469 34.390625 Z M 225.480469 34.390625 " clip-rule="nonzero"/></clipPath><clipPath id="c31fa42d1b"><path d="M 294.34375 34.390625 L 326.957031 34.390625 L 326.957031 121.113281 L 294.34375 121.113281 Z M 294.34375 34.390625 " clip-rule="nonzero"/></clipPath><clipPath id="eff9671c9c"><path d="M 283.800781 34.390625 L 337.5 34.390625 L 337.5 54.792969 L 283.800781 54.792969 Z M 283.800781 34.390625 " clip-rule="nonzero"/></clipPath><clipPath id="6e8412d7a6"><path d="M 283.800781 100.714844 L 337.5 100.714844 L 337.5 121.113281 L 283.800781 121.113281 Z M 283.800781 100.714844 " clip-rule="nonzero"/></clipPath><clipPath id="564c8b40d2"><path d="M 62.4375 34.390625 L 120.375 34.390625 L 120.375 121.296875 L 62.4375 121.296875 Z M 62.4375 34.390625 " clip-rule="nonzero"/></clipPath><clipPath id="d7333ff2c7"><path d="M 90.5625 34.390625 L 120.375 34.390625 L 92.25 121.113281 L 62.4375 121.113281 Z M 90.5625 34.390625 " clip-rule="nonzero"/></clipPath><clipPath id="9bcc4c5cad"><path d="M 120.375 34.390625 L 178.3125 34.390625 L 178.3125 121.296875 L 120.375 121.296875 Z M 120.375 34.390625 " clip-rule="nonzero"/></clipPath><clipPath id="7edb942242"><path d="M 148.5 34.390625 L 178.3125 34.390625 L 150.1875 121.113281 L 120.375 121.113281 Z M 148.5 34.390625 " clip-rule="nonzero"/></clipPath><clipPath id="3dc9838825"><path d="M 91.40625 34.390625 L 149.34375 34.390625 L 149.34375 121.296875 L 91.40625 121.296875 Z M 91.40625 34.390625 " clip-rule="nonzero"/></clipPath><clipPath id="6bc42a0f5a"><path d="M 120.4375 34.390625 L 91.40625 34.390625 L 120.316406 121.113281 L 149.34375 121.113281 Z M 120.4375 34.390625 " clip-rule="nonzero"/></clipPath><clipPath id="3e1170ddd4"><path d="M 115.523438 147.210938 L 189.886719 147.210938 L 189.886719 221.574219 L 115.523438 221.574219 Z M 115.523438 147.210938 " clip-rule="nonzero"/></clipPath><clipPath id="528530fe82"><path d="M 152.703125 147.210938 L 164.535156 172.5625 L 189.886719 184.390625 L 164.535156 196.222656 L 152.703125 221.574219 L 140.875 196.222656 L 115.523438 184.390625 L 140.875 172.5625 Z M 152.703125 147.210938 " clip-rule="nonzero"/></clipPath><clipPath id="421d84846e"><path d="M 47.589844 283.714844 L 57.898438 283.714844 L 57.898438 327.730469 L 47.589844 327.730469 Z M 47.589844 283.714844 " clip-rule="nonzero"/></clipPath><clipPath id="7494b98ffb"><path d="M 47.589844 290.011719 L 47.589844 327.730469 L 57.898438 321.460938 L 57.898438 283.738281 Z M 47.589844 290.011719 " clip-rule="nonzero"/></clipPath><clipPath id="d8d7144ee2"><path d="M 65.132812 283.71875 L 75.441406 283.71875 L 75.441406 329.625 L 65.132812 329.625 Z M 65.132812 283.71875 " clip-rule="nonzero"/></clipPath><clipPath id="66fc0dbc27"><path d="M 65.132812 290.011719 L 65.132812 329.625 L 75.441406 323.355469 L 75.441406 283.742188 Z M 65.132812 290.011719 " clip-rule="nonzero"/></clipPath><clipPath id="2c75e0b461"><path d="M 129 285 L 157 285 L 157 300 L 129 300 Z M 129 285 " clip-rule="nonzero"/></clipPath><clipPath id="07f0750fc0"><path d="M 129.648438 295.050781 L 138.46875 279.667969 L 156.257812 289.867188 L 147.433594 305.253906 Z M 129.648438 295.050781 " clip-rule="nonzero"/></clipPath><clipPath id="ac4fae06ba"><path d="M 135.078125 285.582031 L 129.648438 295.050781 L 150.785156 299.3125 L 156.214844 289.84375 Z M 135.078125 285.582031 " clip-rule="nonzero"/></clipPath><clipPath id="805b6721f6"><path d="M 121 287 L 138 287 L 138 315 L 121 315 Z M 121 287 " clip-rule="nonzero"/></clipPath><clipPath id="3952c8d844"><path d="M 130.304688 314.695312 L 116.589844 303.449219 L 129.589844 287.589844 L 143.304688 298.835938 Z M 130.304688 314.695312 " clip-rule="nonzero"/></clipPath><clipPath id="cf5213a5ff"><path d="M 121.863281 307.773438 L 130.304688 314.695312 L 138 294.550781 L 129.558594 287.628906 Z M 121.863281 307.773438 " clip-rule="nonzero"/></clipPath><clipPath id="44c1d7bbc2"><path d="M 118 304 L 143 304 L 143 325 L 118 325 Z M 118 304 " clip-rule="nonzero"/></clipPath><clipPath id="48a8f2dc47"><path d="M 142.445312 320.660156 L 126.113281 327.574219 L 118.117188 308.691406 L 134.445312 301.777344 Z M 142.445312 320.660156 " clip-rule="nonzero"/></clipPath><clipPath id="59d48b0653"><path d="M 132.390625 324.914062 L 142.445312 320.660156 L 128.1875 304.480469 L 118.136719 308.738281 Z M 132.390625 324.914062 " clip-rule="nonzero"/></clipPath><clipPath id="1fda97b759"><path d="M 26 305 L 135 305 L 135 309 L 26 309 Z M 26 305 " clip-rule="nonzero"/></clipPath><clipPath id="2ffec7c332"><path d="M 134.777344 305.167969 L 26.707031 311.144531 L 26.542969 308.203125 L 134.613281 302.222656 Z M 134.777344 305.167969 " clip-rule="nonzero"/></clipPath><clipPath id="efb82d7eaa"><path d="M 80.746094 308.15625 L 134.777344 305.167969 L 80.582031 305.210938 L 26.550781 308.199219 Z M 80.746094 308.15625 " clip-rule="nonzero"/></clipPath><clipPath id="56387d9991"><path d="M 130 312 L 153 312 L 153 328 L 130 328 Z M 130 312 " clip-rule="nonzero"/></clipPath><clipPath id="7db9bf020b"><path d="M 152.421875 312.007812 L 150.4375 329.628906 L 130.058594 327.335938 L 132.042969 309.710938 Z M 152.421875 312.007812 " clip-rule="nonzero"/></clipPath><clipPath id="3fe08815f6"><path d="M 151.199219 322.855469 L 152.421875 312.007812 L 131.328125 316.492188 L 130.105469 327.339844 Z M 151.199219 322.855469 " clip-rule="nonzero"/></clipPath><clipPath id="2fcfd49408"><path d="M 160.054688 283.726562 L 170.363281 283.726562 L 170.363281 327.742188 L 160.054688 327.742188 Z M 160.054688 283.726562 " clip-rule="nonzero"/></clipPath><clipPath id="0f2bc7debd"><path d="M 160.054688 290.023438 L 160.054688 327.742188 L 170.363281 321.46875 L 170.363281 283.75 Z M 160.054688 290.023438 " clip-rule="nonzero"/></clipPath><clipPath id="724ef94720"><path d="M 152 286 L 194 286 L 194 315 L 152 315 Z M 152 286 " clip-rule="nonzero"/></clipPath><clipPath id="7230d1a1e8"><path d="M 152.980469 310.433594 L 186.585938 282.007812 L 193.242188 289.878906 L 159.640625 318.304688 Z M 152.980469 310.433594 " clip-rule="nonzero"/></clipPath><clipPath id="14d7bc965e"><path d="M 181.78125 286.074219 L 152.980469 310.433594 L 164.425781 314.253906 L 193.226562 289.894531 Z M 181.78125 286.074219 " clip-rule="nonzero"/></clipPath><clipPath id="20d506b064"><path d="M 171 295 L 194 295 L 194 328 L 171 328 Z M 171 295 " clip-rule="nonzero"/></clipPath><clipPath id="ca4010696b"><path d="M 189.359375 327.726562 L 167.953125 302.324219 L 175.835938 295.679688 L 197.242188 321.085938 Z M 189.359375 327.726562 " clip-rule="nonzero"/></clipPath><clipPath id="14370f4b8c"><path d="M 171.992188 307.121094 L 189.359375 327.726562 L 193.203125 316.289062 L 175.835938 295.683594 Z M 171.992188 307.121094 " clip-rule="nonzero"/></clipPath><clipPath id="6c3f2bfb1d"><path d="M 225.472656 288.664062 L 235.78125 288.664062 L 235.78125 327.804688 L 225.472656 327.804688 Z M 225.472656 288.664062 " clip-rule="nonzero"/></clipPath><clipPath id="4ddc0489cc"><path d="M 225.472656 294.960938 L 225.472656 327.804688 L 235.78125 321.535156 L 235.78125 288.691406 Z M 225.472656 294.960938 " clip-rule="nonzero"/></clipPath><clipPath id="34679e252e"><path d="M 206.367188 288.21875 L 249.777344 288.21875 L 249.777344 298.527344 L 206.367188 298.527344 Z M 206.367188 288.21875 " clip-rule="nonzero"/></clipPath><clipPath id="2c1ca700f8"><path d="M 212.644531 298.527344 L 249.777344 298.527344 L 243.503906 288.21875 L 206.375 288.21875 Z M 212.644531 298.527344 " clip-rule="nonzero"/></clipPath><clipPath id="9ec094ddc3"><path d="M 250.375 288.222656 L 260.273438 288.222656 L 260.273438 308.015625 L 250.375 308.015625 Z M 250.375 288.222656 " clip-rule="nonzero"/></clipPath><clipPath id="b06ed8a78c"><path d="M 250.375 293.171875 L 250.375 303.070312 L 255.324219 308.015625 L 260.273438 303.070312 L 260.273438 293.171875 L 255.324219 288.222656 Z M 250.375 293.171875 " clip-rule="nonzero"/></clipPath><clipPath id="c458e8409b"><path d="M 250.375 308.015625 L 260.273438 308.015625 L 260.273438 327.8125 L 250.375 327.8125 Z M 250.375 308.015625 " clip-rule="nonzero"/></clipPath><clipPath id="eeb921a399"><path d="M 250.375 312.964844 L 250.375 322.863281 L 255.324219 327.8125 L 260.273438 322.863281 L 260.273438 312.964844 L 255.324219 308.015625 Z M 250.375 312.964844 " clip-rule="nonzero"/></clipPath><clipPath id="5c62caa553"><path d="M 270.167969 288.222656 L 280.0625 288.222656 L 280.0625 308.015625 L 270.167969 308.015625 Z M 270.167969 288.222656 " clip-rule="nonzero"/></clipPath><clipPath id="8cc2feea0c"><path d="M 270.167969 293.171875 L 270.167969 303.070312 L 275.113281 308.015625 L 280.0625 303.070312 L 280.0625 293.171875 L 275.113281 288.222656 Z M 270.167969 293.171875 " clip-rule="nonzero"/></clipPath><clipPath id="5cc24d2f7f"><path d="M 270.167969 308.015625 L 280.0625 308.015625 L 280.0625 327.8125 L 270.167969 327.8125 Z M 270.167969 308.015625 " clip-rule="nonzero"/></clipPath><clipPath id="202a11cc1f"><path d="M 270.167969 312.964844 L 270.167969 322.863281 L 275.113281 327.8125 L 280.0625 322.863281 L 280.0625 312.964844 L 275.113281 308.015625 Z M 270.167969 312.964844 " clip-rule="nonzero"/></clipPath><clipPath id="7c7a3c7fd8"><path d="M 255.316406 303.074219 L 275.113281 303.074219 L 275.113281 312.96875 L 255.316406 312.96875 Z M 255.316406 303.074219 " clip-rule="nonzero"/></clipPath><clipPath id="6ddcd5cb2c"><path d="M 270.164062 303.074219 L 260.265625 303.074219 L 255.316406 308.019531 L 260.265625 312.96875 L 270.164062 312.96875 L 275.113281 308.019531 Z M 270.164062 303.074219 " clip-rule="nonzero"/></clipPath><clipPath id="01dcc8c2b5"><path d="M 284.191406 288.148438 L 294.085938 288.148438 L 294.085938 307.941406 L 284.191406 307.941406 Z M 284.191406 288.148438 " clip-rule="nonzero"/></clipPath><clipPath id="841e202ce6"><path d="M 284.191406 293.097656 L 284.191406 302.992188 L 289.136719 307.941406 L 294.085938 302.992188 L 294.085938 293.097656 L 289.136719 288.148438 Z M 284.191406 293.097656 " clip-rule="nonzero"/></clipPath><clipPath id="09a0baba20"><path d="M 284.191406 307.941406 L 294.085938 307.941406 L 294.085938 327.734375 L 284.191406 327.734375 Z M 284.191406 307.941406 " clip-rule="nonzero"/></clipPath><clipPath id="72b0f4621e"><path d="M 284.191406 312.890625 L 284.191406 322.785156 L 289.136719 327.734375 L 294.085938 322.785156 L 294.085938 312.890625 L 289.136719 307.941406 Z M 284.191406 312.890625 " clip-rule="nonzero"/></clipPath><clipPath id="ff520b89c0"><path d="M 303.980469 288.148438 L 313.875 288.148438 L 313.875 307.941406 L 303.980469 307.941406 Z M 303.980469 288.148438 " clip-rule="nonzero"/></clipPath><clipPath id="38b9f26ed3"><path d="M 303.980469 293.097656 L 303.980469 302.992188 L 308.929688 307.941406 L 313.875 302.992188 L 313.875 293.097656 L 308.929688 288.148438 Z M 303.980469 293.097656 " clip-rule="nonzero"/></clipPath><clipPath id="99008e4008"><path d="M 303.980469 307.941406 L 313.875 307.941406 L 313.875 327.734375 L 303.980469 327.734375 Z M 303.980469 307.941406 " clip-rule="nonzero"/></clipPath><clipPath id="9c171e7b8c"><path d="M 303.980469 312.890625 L 303.980469 322.785156 L 308.929688 327.734375 L 313.875 322.785156 L 313.875 312.890625 L 308.929688 307.941406 Z M 303.980469 312.890625 " clip-rule="nonzero"/></clipPath><clipPath id="bf53caca82"><path d="M 289.132812 322.867188 L 308.925781 322.867188 L 308.925781 332.761719 L 289.132812 332.761719 Z M 289.132812 322.867188 " clip-rule="nonzero"/></clipPath><clipPath id="d5b41d536b"><path d="M 303.976562 322.867188 L 294.082031 322.867188 L 289.132812 327.8125 L 294.082031 332.761719 L 303.976562 332.761719 L 308.925781 327.8125 Z M 303.976562 322.867188 " clip-rule="nonzero"/></clipPath><clipPath id="71f11c9aec"><path d="M 320.195312 288.507812 L 330.503906 288.507812 L 330.503906 332.523438 L 320.195312 332.523438 Z M 320.195312 288.507812 " clip-rule="nonzero"/></clipPath><clipPath id="9eb8359c20"><path d="M 320.195312 294.804688 L 320.195312 332.523438 L 330.503906 326.25 L 330.503906 288.53125 Z M 320.195312 294.804688 " clip-rule="nonzero"/></clipPath><clipPath id="d6b7f410a8"><path d="M 338.136719 276.859375 L 348.445312 276.859375 L 348.445312 322.765625 L 338.136719 322.765625 Z M 338.136719 276.859375 " clip-rule="nonzero"/></clipPath><clipPath id="302931277f"><path d="M 338.136719 283.152344 L 338.136719 322.765625 L 348.445312 316.492188 L 348.445312 276.878906 Z M 338.136719 283.152344 " clip-rule="nonzero"/></clipPath><clipPath id="4064f5f65e"><path d="M 324 293 L 344 293 L 344 318 L 324 318 Z M 324 293 " clip-rule="nonzero"/></clipPath><clipPath id="c5f878da47"><path d="M 342.601562 317.992188 L 319.164062 301.90625 L 324.996094 293.40625 L 348.4375 309.492188 Z M 342.601562 317.992188 " clip-rule="nonzero"/></clipPath><clipPath id="460482a31e"><path d="M 324.34375 305.460938 L 342.601562 317.992188 L 343.265625 305.945312 L 325.007812 293.414062 Z M 324.34375 305.460938 " clip-rule="nonzero"/></clipPath><clipPath id="e87d6ba829"><path d="M 289.136719 283.277344 L 308.929688 283.277344 L 308.929688 293.175781 L 289.136719 293.175781 Z M 289.136719 283.277344 " clip-rule="nonzero"/></clipPath><clipPath id="0da97b1c02"><path d="M 303.980469 283.277344 L 294.082031 283.277344 L 289.136719 288.226562 L 294.082031 293.175781 L 303.980469 293.175781 L 308.929688 288.226562 Z M 303.980469 283.277344 " clip-rule="nonzero"/></clipPath></defs><g clip-path="url(#63be423034)"><g clip-path="url(#0a45635641)"><path fill="#ac6ad6" d="M 33.46875 34.390625 L 91.40625 34.390625 L 91.40625 121.070312 L 33.46875 121.070312 Z M 33.46875 34.390625 " fill-opacity="1" fill-rule="nonzero"/></g></g><g clip-path="url(#a059750b80)"><g clip-path="url(#6018377f24)"><path stroke-linecap="butt" transform="matrix(0.75, 0, 0, 0.75, 182.121014, 34.392262)" fill="none" stroke-linejoin="miter" d="M 57.81261 -0.00218296 C 25.885525 -0.00218296 0.000106146 25.883235 0.000106146 57.810321 C 0.000106146 89.742615 25.885525 115.622825 57.81261 115.622825 C 89.739695 115.622825 115.625114 89.742615 115.625114 57.810321 C 115.625114 25.883235 89.739695 -0.00218296 57.81261 -0.00218296 Z M 57.81261 -0.00218296 " stroke="#f7b519" stroke-width="70" stroke-opacity="1" stroke-miterlimit="4"/></g></g><g clip-path="url(#c31fa42d1b)"><path fill="#f37321" d="M 294.34375 34.390625 L 326.957031 34.390625 L 326.957031 121.15625 L 294.34375 121.15625 Z M 294.34375 34.390625 " fill-opacity="1" fill-rule="nonzero"/></g><g clip-path="url(#eff9671c9c)"><path fill="#f37321" d="M 283.800781 34.390625 L 337.507812 34.390625 L 337.507812 54.792969 L 283.800781 54.792969 Z M 283.800781 34.390625 " fill-opacity="1" fill-rule="nonzero"/></g><g clip-path="url(#6e8412d7a6)"><path fill="#f37321" d="M 283.800781 100.714844 L 337.507812 100.714844 L 337.507812 121.113281 L 283.800781 121.113281 Z M 283.800781 100.714844 " fill-opacity="1" fill-rule="nonzero"/></g><g clip-path="url(#564c8b40d2)"><g clip-path="url(#d7333ff2c7)"><path fill="#ac6ad6" d="M 62.4375 34.390625 L 120.375 34.390625 L 120.375 121.070312 L 62.4375 121.070312 Z M 62.4375 34.390625 " fill-opacity="1" fill-rule="nonzero"/></g></g><g clip-path="url(#9bcc4c5cad)"><g clip-path="url(#7edb942242)"><path fill="#ac6ad6" d="M 120.375 34.390625 L 178.3125 34.390625 L 178.3125 121.070312 L 120.375 121.070312 Z M 120.375 34.390625 " fill-opacity="1" fill-rule="nonzero"/></g></g><g clip-path="url(#3dc9838825)"><g clip-path="url(#6bc42a0f5a)"><path fill="#ac6ad6" d="M 91.40625 34.390625 L 149.34375 34.390625 L 149.34375 121.070312 L 91.40625 121.070312 Z M 91.40625 34.390625 " fill-opacity="1" fill-rule="nonzero"/></g></g><g fill="#f7b519" fill-opacity="1"><g transform="translate(47.531457, 221.247478)"><g><path d="M 2.890625 -11.671875 L 15.71875 -23.359375 L 21.265625 -28.328125 C 25.816406 -32.335938 29.304688 -35.535156 31.734375 -37.921875 C 34.160156 -40.304688 36.160156 -42.734375 37.734375 -45.203125 C 39.316406 -47.671875 40.109375 -50.097656 40.109375 -52.484375 C 40.109375 -59.648438 36.066406 -63.234375 27.984375 -63.234375 C 24.046875 -63.234375 20.171875 -62.539062 16.359375 -61.15625 C 12.546875 -59.769531 9.019531 -57.84375 5.78125 -55.375 L 5.78125 -74.921875 C 9.25 -77.304688 13.296875 -79.171875 17.921875 -80.515625 C 22.546875 -81.867188 27.476562 -82.546875 32.71875 -82.546875 C 38.726562 -82.546875 43.929688 -81.425781 48.328125 -79.1875 C 52.722656 -76.957031 56.070312 -73.875 58.375 -69.9375 C 60.6875 -66.007812 61.84375 -61.582031 61.84375 -56.65625 C 61.84375 -50.71875 60.472656 -45.53125 57.734375 -41.09375 C 55.003906 -36.664062 50.597656 -31.675781 44.515625 -26.125 L 34.21875 -16.765625 L 64.390625 -16.765625 L 64.390625 0 L 2.890625 0 Z M 2.890625 -11.671875 "/></g></g></g><g fill="#f7b519" fill-opacity="1"><g transform="translate(114.839659, 221.247478)"><g/></g></g><g fill="#f7b519" fill-opacity="1"><g transform="translate(154.147987, 221.247478)"><g/></g></g><g fill="#f7b519" fill-opacity="1"><g transform="translate(193.461872, 221.247478)"><g><path d="M 2.890625 -11.671875 L 15.71875 -23.359375 L 21.265625 -28.328125 C 25.816406 -32.335938 29.304688 -35.535156 31.734375 -37.921875 C 34.160156 -40.304688 36.160156 -42.734375 37.734375 -45.203125 C 39.316406 -47.671875 40.109375 -50.097656 40.109375 -52.484375 C 40.109375 -59.648438 36.066406 -63.234375 27.984375 -63.234375 C 24.046875 -63.234375 20.171875 -62.539062 16.359375 -61.15625 C 12.546875 -59.769531 9.019531 -57.84375 5.78125 -55.375 L 5.78125 -74.921875 C 9.25 -77.304688 13.296875 -79.171875 17.921875 -80.515625 C 22.546875 -81.867188 27.476562 -82.546875 32.71875 -82.546875 C 38.726562 -82.546875 43.929688 -81.425781 48.328125 -79.1875 C 52.722656 -76.957031 56.070312 -73.875 58.375 -69.9375 C 60.6875 -66.007812 61.84375 -61.582031 61.84375 -56.65625 C 61.84375 -50.71875 60.472656 -45.53125 57.734375 -41.09375 C 55.003906 -36.664062 50.597656 -31.675781 44.515625 -26.125 L 34.21875 -16.765625 L 64.390625 -16.765625 L 64.390625 0 L 2.890625 0 Z M 2.890625 -11.671875 "/></g></g></g><g fill="#f7b519" fill-opacity="1"><g transform="translate(260.748473, 221.247478)"><g><path d="M 27.859375 1.734375 C 23.234375 1.734375 18.644531 1.234375 14.09375 0.234375 C 9.550781 -0.765625 5.816406 -2.15625 2.890625 -3.9375 L 2.890625 -21.84375 C 6.359375 -19.613281 10.269531 -17.863281 14.625 -16.59375 C 18.976562 -15.320312 23.082031 -14.6875 26.9375 -14.6875 C 32.332031 -14.6875 36.335938 -15.722656 38.953125 -17.796875 C 41.578125 -19.878906 42.890625 -22.734375 42.890625 -26.359375 C 42.890625 -29.828125 41.554688 -32.523438 38.890625 -34.453125 C 36.234375 -36.378906 32.519531 -37.34375 27.75 -37.34375 C 25.050781 -37.34375 22.21875 -37.09375 19.25 -36.59375 C 16.28125 -36.09375 13.71875 -35.378906 11.5625 -34.453125 L 3.703125 -38.953125 L 6.9375 -80.8125 L 58.734375 -80.8125 L 58.734375 -64.046875 L 26.703125 -64.046875 L 25.671875 -51.328125 C 29.210938 -52.253906 32.988281 -52.71875 37 -52.71875 C 45.394531 -52.71875 51.960938 -50.5 56.703125 -46.0625 C 61.441406 -41.632812 63.8125 -35.257812 63.8125 -26.9375 C 63.8125 -17.914062 60.765625 -10.878906 54.671875 -5.828125 C 48.585938 -0.785156 39.648438 1.734375 27.859375 1.734375 Z M 27.859375 1.734375 "/></g></g></g><g clip-path="url(#3e1170ddd4)"><g clip-path="url(#528530fe82)"><path fill="#f7b519" d="M 115.523438 147.210938 L 189.886719 147.210938 L 189.886719 221.574219 L 115.523438 221.574219 Z M 115.523438 147.210938 " fill-opacity="1" fill-rule="nonzero"/></g></g><g clip-path="url(#421d84846e)"><g clip-path="url(#7494b98ffb)"><path fill="#f7b519" d="M 47.589844 327.730469 L 47.589844 283.757812 L 57.898438 283.757812 L 57.898438 327.730469 Z M 47.589844 327.730469 " fill-opacity="1" fill-rule="nonzero"/></g></g><g clip-path="url(#d8d7144ee2)"><g clip-path="url(#66fc0dbc27)"><path fill="#f7b519" d="M 65.132812 329.625 L 65.132812 283.761719 L 75.441406 283.761719 L 75.441406 329.625 Z M 65.132812 329.625 " fill-opacity="1" fill-rule="nonzero"/></g></g><g fill="#f7b519" fill-opacity="1"><g transform="translate(119.772433, 286.944326)"><g><path d="M -1.421875 39.578125 L -12.125 39.578125 L -22.203125 13.25 L -32.28125 39.578125 L -42.921875 39.578125 L -27.125 0 L -17.265625 0 Z M -1.421875 39.578125 "/></g></g></g><g clip-path="url(#2c75e0b461)"><g clip-path="url(#07f0750fc0)"><g clip-path="url(#ac4fae06ba)"><path fill="#f7b519" d="M 129.648438 295.050781 L 138.46875 279.667969 L 156.199219 289.835938 L 147.375 305.21875 Z M 129.648438 295.050781 " fill-opacity="1" fill-rule="nonzero"/></g></g></g><g clip-path="url(#805b6721f6)"><g clip-path="url(#3952c8d844)"><g clip-path="url(#cf5213a5ff)"><path fill="#f7b519" d="M 130.304688 314.695312 L 116.589844 303.449219 L 129.546875 287.644531 L 143.261719 298.890625 Z M 130.304688 314.695312 " fill-opacity="1" fill-rule="nonzero"/></g></g></g><g clip-path="url(#44c1d7bbc2)"><g clip-path="url(#48a8f2dc47)"><g clip-path="url(#59d48b0653)"><path fill="#f7b519" d="M 142.445312 320.660156 L 126.113281 327.574219 L 118.144531 308.757812 L 134.472656 301.839844 Z M 142.445312 320.660156 " fill-opacity="1" fill-rule="nonzero"/></g></g></g><g clip-path="url(#1fda97b759)"><g clip-path="url(#2ffec7c332)"><g clip-path="url(#efb82d7eaa)"><path fill="#ff4d00" d="M 134.777344 305.167969 L 26.714844 311.144531 L 26.554688 308.199219 L 134.613281 302.222656 Z M 134.777344 305.167969 " fill-opacity="1" fill-rule="nonzero"/></g></g></g><g clip-path="url(#56387d9991)"><g clip-path="url(#7db9bf020b)"><g clip-path="url(#3fe08815f6)"><path fill="#f7b519" d="M 152.421875 312.007812 L 150.4375 329.628906 L 130.128906 327.34375 L 132.113281 309.71875 Z M 152.421875 312.007812 " fill-opacity="1" fill-rule="nonzero"/></g></g></g><g clip-path="url(#2fcfd49408)"><g clip-path="url(#0f2bc7debd)"><path fill="#f7b519" d="M 160.054688 327.742188 L 160.054688 283.769531 L 170.363281 283.769531 L 170.363281 327.742188 Z M 160.054688 327.742188 " fill-opacity="1" fill-rule="nonzero"/></g></g><g clip-path="url(#724ef94720)"><g clip-path="url(#7230d1a1e8)"><g clip-path="url(#14d7bc965e)"><path fill="#f7b519" d="M 152.980469 310.433594 L 186.554688 282.035156 L 193.210938 289.90625 L 159.640625 318.304688 Z M 152.980469 310.433594 " fill-opacity="1" fill-rule="nonzero"/></g></g></g><g clip-path="url(#20d506b064)"><g clip-path="url(#ca4010696b)"><g clip-path="url(#14370f4b8c)"><path fill="#f7b519" d="M 189.359375 327.726562 L 167.953125 302.324219 L 175.835938 295.679688 L 197.242188 321.085938 Z M 189.359375 327.726562 " fill-opacity="1" fill-rule="nonzero"/></g></g></g><g fill="#f7b519" fill-opacity="1"><g transform="translate(226.9348, 287.891436)"><g><path d="M -1.421875 39.578125 L -12.125 39.578125 L -22.203125 13.25 L -32.28125 39.578125 L -42.921875 39.578125 L -27.125 0 L -17.265625 0 Z M -1.421875 39.578125 "/></g></g></g><g clip-path="url(#6c3f2bfb1d)"><g clip-path="url(#4ddc0489cc)"><path fill="#f7b519" d="M 225.472656 327.804688 L 225.472656 288.703125 L 235.78125 288.703125 L 235.78125 327.804688 Z M 225.472656 327.804688 " fill-opacity="1" fill-rule="nonzero"/></g></g><g clip-path="url(#34679e252e)"><g clip-path="url(#2c1ca700f8)"><path fill="#ff4d00" d="M 249.777344 298.527344 L 206.367188 298.527344 L 206.367188 288.21875 L 249.777344 288.21875 Z M 249.777344 298.527344 " fill-opacity="1" fill-rule="nonzero"/></g></g><g clip-path="url(#9ec094ddc3)"><g clip-path="url(#b06ed8a78c)"><path fill="#ff4d00" d="M 250.375 308.015625 L 250.375 288.222656 L 260.273438 288.222656 L 260.273438 308.015625 Z M 250.375 308.015625 " fill-opacity="1" fill-rule="nonzero"/></g></g><g clip-path="url(#c458e8409b)"><g clip-path="url(#eeb921a399)"><path fill="#ff4d00" d="M 250.375 327.8125 L 250.375 308.015625 L 260.273438 308.015625 L 260.273438 327.8125 Z M 250.375 327.8125 " fill-opacity="1" fill-rule="nonzero"/></g></g><g clip-path="url(#5c62caa553)"><g clip-path="url(#8cc2feea0c)"><path fill="#ff4d00" d="M 270.167969 308.015625 L 270.167969 288.222656 L 280.0625 288.222656 L 280.0625 308.015625 Z M 270.167969 308.015625 " fill-opacity="1" fill-rule="nonzero"/></g></g><g clip-path="url(#5cc24d2f7f)"><g clip-path="url(#202a11cc1f)"><path fill="#ff4d00" d="M 270.167969 327.8125 L 270.167969 308.015625 L 280.0625 308.015625 L 280.0625 327.8125 Z M 270.167969 327.8125 " fill-opacity="1" fill-rule="nonzero"/></g></g><g clip-path="url(#7c7a3c7fd8)"><g clip-path="url(#6ddcd5cb2c)"><path fill="#ff4d00" d="M 255.316406 303.074219 L 275.113281 303.074219 L 275.113281 312.96875 L 255.316406 312.96875 Z M 255.316406 303.074219 " fill-opacity="1" fill-rule="nonzero"/></g></g><g clip-path="url(#01dcc8c2b5)"><g clip-path="url(#841e202ce6)"><path fill="#ff4d00" d="M 284.191406 307.941406 L 284.191406 288.148438 L 294.085938 288.148438 L 294.085938 307.941406 Z M 284.191406 307.941406 " fill-opacity="1" fill-rule="nonzero"/></g></g><g clip-path="url(#09a0baba20)"><g clip-path="url(#72b0f4621e)"><path fill="#ff4d00" d="M 284.191406 327.734375 L 284.191406 307.941406 L 294.085938 307.941406 L 294.085938 327.734375 Z M 284.191406 327.734375 " fill-opacity="1" fill-rule="nonzero"/></g></g><g clip-path="url(#ff520b89c0)"><g clip-path="url(#38b9f26ed3)"><path fill="#ff4d00" d="M 303.980469 307.941406 L 303.980469 288.148438 L 313.875 288.148438 L 313.875 307.941406 Z M 303.980469 307.941406 " fill-opacity="1" fill-rule="nonzero"/></g></g><g clip-path="url(#99008e4008)"><g clip-path="url(#9c171e7b8c)"><path fill="#ff4d00" d="M 303.980469 327.734375 L 303.980469 307.941406 L 313.875 307.941406 L 313.875 327.734375 Z M 303.980469 327.734375 " fill-opacity="1" fill-rule="nonzero"/></g></g><g clip-path="url(#bf53caca82)"><g clip-path="url(#d5b41d536b)"><path fill="#ff4d00" d="M 289.132812 322.867188 L 308.925781 322.867188 L 308.925781 332.761719 L 289.132812 332.761719 Z M 289.132812 322.867188 " fill-opacity="1" fill-rule="nonzero"/></g></g><g clip-path="url(#71f11c9aec)"><g clip-path="url(#9eb8359c20)"><path fill="#f7b519" d="M 320.195312 332.523438 L 320.195312 288.546875 L 330.503906 288.546875 L 330.503906 332.523438 Z M 320.195312 332.523438 " fill-opacity="1" fill-rule="nonzero"/></g></g><g clip-path="url(#d6b7f410a8)"><g clip-path="url(#302931277f)"><path fill="#f7b519" d="M 338.136719 322.765625 L 338.136719 276.898438 L 348.445312 276.898438 L 348.445312 322.765625 Z M 338.136719 322.765625 " fill-opacity="1" fill-rule="nonzero"/></g></g><g clip-path="url(#4064f5f65e)"><g clip-path="url(#c5f878da47)"><g clip-path="url(#460482a31e)"><path fill="#f7b519" d="M 342.601562 317.992188 L 319.164062 301.90625 L 324.996094 293.40625 L 348.4375 309.492188 Z M 342.601562 317.992188 " fill-opacity="1" fill-rule="nonzero"/></g></g></g><g clip-path="url(#e87d6ba829)"><g clip-path="url(#0da97b1c02)"><path fill="#ff4d00" d="M 289.136719 283.277344 L 308.929688 283.277344 L 308.929688 293.175781 L 289.136719 293.175781 Z M 289.136719 283.277344 " fill-opacity="1" fill-rule="nonzero"/></g></g><g fill="#ac6ad6" fill-opacity="1"><g transform="translate(142.724995, 263.169124)"><g><path d="M 1.421875 -22.15625 L 17.140625 -22.15625 L 17.140625 -17.421875 L 7.03125 -17.421875 L 7.03125 -13.28125 L 14.421875 -13.28125 L 14.421875 -8.875 L 7.03125 -8.875 L 7.03125 0 L 1.421875 0 Z M 1.421875 -22.15625 "/></g></g></g><g fill="#ac6ad6" fill-opacity="1"><g transform="translate(160.026332, 263.169124)"><g><path d="M 1.421875 -22.15625 L 7.03125 -22.15625 L 7.03125 0 L 1.421875 0 Z M 1.421875 -22.15625 "/></g></g></g><g fill="#ac6ad6" fill-opacity="1"><g transform="translate(168.48688, 263.169124)"><g><path d="M 1.421875 -22.15625 L 6.96875 -22.15625 L 15.109375 -8.96875 L 15.109375 -22.15625 L 20.71875 -22.15625 L 20.71875 0 L 15.203125 0 L 7.03125 -13.21875 L 7.03125 0 L 1.421875 0 Z M 1.421875 -22.15625 "/></g></g></g><g fill="#ac6ad6" fill-opacity="1"><g transform="translate(190.636404, 263.169124)"><g><path d="M 9.671875 -22.15625 L 15.171875 -22.15625 L 24.015625 0 L 18.28125 0 L 16.515625 -4.5625 L 8.328125 -4.5625 L 6.5625 0 L 0.796875 0 Z M 15.109375 -8.875 L 12.421875 -16.3125 L 9.703125 -8.875 Z M 15.109375 -8.875 "/></g></g></g><g fill="#ac6ad6" fill-opacity="1"><g transform="translate(215.447662, 263.169124)"><g><path d="M 1.421875 -22.15625 L 7.03125 -22.15625 L 7.03125 -4.71875 L 16.671875 -4.71875 L 16.671875 0 L 1.421875 0 Z M 1.421875 -22.15625 "/></g></g></g></svg>