<svg xmlns="http://www.w3.org/2000/svg" xmlns:xlink="http://www.w3.org/1999/xlink" width="166" zoomAndPan="magnify" viewBox="0 0 124.5 32.999998" height="44" preserveAspectRatio="xMidYMid meet" version="1.0"><defs><g/><clipPath id="5ca5ad90a5"><path d="M 54.40625 19.789062 L 62.863281 19.789062 L 62.863281 24.824219 L 54.40625 24.824219 Z M 54.40625 19.789062 " clip-rule="nonzero"/></clipPath><clipPath id="7f561b8f2e"><path d="M 54.40625 19.789062 L 92.8125 19.789062 L 92.8125 24.824219 L 54.40625 24.824219 Z M 54.40625 19.789062 " clip-rule="nonzero"/></clipPath><clipPath id="dcfc6777a2"><path d="M 60.410156 19.789062 L 92.800781 19.789062 L 86.796875 24.824219 L 54.40625 24.824219 Z M 60.410156 19.789062 " clip-rule="nonzero"/></clipPath><clipPath id="f3cb808376"><path d="M 93 3 L 110 3 L 110 32.933594 L 93 32.933594 Z M 93 3 " clip-rule="nonzero"/></clipPath><clipPath id="9f27471e7d"><path d="M 109.160156 3.316406 L 96.761719 33.875 L 93.078125 32.382812 L 105.472656 1.820312 Z M 109.160156 3.316406 " clip-rule="nonzero"/></clipPath><clipPath id="4cc8ef9599"><path d="M 102.871094 18.8125 L 109.160156 3.316406 L 99.367188 16.878906 L 93.078125 32.375 Z M 102.871094 18.8125 " clip-rule="nonzero"/></clipPath><clipPath id="d52000cd9e"><path d="M 86 9 L 116 9 L 116 26 L 86 26 Z M 86 9 " clip-rule="nonzero"/></clipPath><clipPath id="27ec0fbdc4"><path d="M 115.652344 25.875 L 85.085938 13.496094 L 86.578125 9.808594 L 117.144531 22.1875 Z M 115.652344 25.875 " clip-rule="nonzero"/></clipPath><clipPath id="5a7732950d"><path d="M 100.152344 19.597656 L 115.652344 25.875 L 102.085938 16.089844 L 86.585938 9.8125 Z M 100.152344 19.597656 " clip-rule="nonzero"/></clipPath><clipPath id="269d2ce06d"><path d="M 55.199219 20.652344 L 79.984375 20.652344 L 79.984375 23.960938 L 55.199219 23.960938 Z M 55.199219 20.652344 " clip-rule="nonzero"/></clipPath><clipPath id="a913eb836f"><path d="M 59.144531 20.652344 L 79.972656 20.652344 L 76.03125 23.960938 L 55.199219 23.960938 Z M 59.144531 20.652344 " clip-rule="nonzero"/></clipPath><clipPath id="331326a914"><path d="M 55.199219 20.652344 L 60.753906 20.652344 L 60.753906 23.960938 L 55.199219 23.960938 Z M 55.199219 20.652344 " clip-rule="nonzero"/></clipPath><clipPath id="5b98d8a684"><path d="M 50.351562 6.074219 L 52.703125 6.074219 L 52.703125 17.84375 L 50.351562 17.84375 Z M 50.351562 6.074219 " clip-rule="nonzero"/></clipPath><clipPath id="886fd78159"><path d="M 46 6 L 52 6 L 52 11 L 46 11 Z M 46 6 " clip-rule="nonzero"/></clipPath><clipPath id="cd84b2a298"><path d="M 50.335938 6.078125 L 51.851562 7.875 L 48.222656 10.941406 L 46.703125 9.144531 Z M 50.335938 6.078125 " clip-rule="nonzero"/></clipPath><clipPath id="a069988b10"><path d="M 91.453125 7.886719 L 93.644531 7.886719 L 93.644531 17.367188 L 91.453125 17.367188 Z M 91.453125 7.886719 " clip-rule="nonzero"/></clipPath><clipPath id="34a3626e50"><path d="M 97 12 L 105 12 L 105 24 L 97 24 Z M 97 12 " clip-rule="nonzero"/></clipPath><clipPath id="fdda93c194"><path d="M 104.28125 12.125 L 99.402344 24.15625 L 97.953125 23.566406 L 102.832031 11.539062 Z M 104.28125 12.125 " clip-rule="nonzero"/></clipPath><clipPath id="4b7bb8af24"><path d="M 101.808594 18.226562 L 104.28125 12.125 L 100.429688 17.464844 L 97.953125 23.566406 Z M 101.808594 18.226562 " clip-rule="nonzero"/></clipPath><clipPath id="66dd5be98a"><path d="M 95 14 L 107 14 L 107 22 L 95 22 Z M 95 14 " clip-rule="nonzero"/></clipPath><clipPath id="e1fc9eb6da"><path d="M 106.839844 21.007812 L 94.804688 16.132812 L 95.394531 14.683594 L 107.425781 19.554688 Z M 106.839844 21.007812 " clip-rule="nonzero"/></clipPath><clipPath id="ce3ff6bc0d"><path d="M 100.738281 18.535156 L 106.839844 21.007812 L 101.5 17.15625 L 95.398438 14.683594 Z M 100.738281 18.535156 " clip-rule="nonzero"/></clipPath></defs><g fill="#ac6ad6" fill-opacity="1"><g transform="translate(19.485317, 17.844589)"><g><path d="M 5.59375 0 L 3 0 L 0.328125 -11.71875 L 2.625 -11.71875 L 4.40625 -3.484375 L 4.609375 -3.484375 L 6.703125 -11.71875 L 8.6875 -11.71875 L 10.828125 -3.484375 L 11.03125 -3.484375 L 12.8125 -11.71875 L 15.03125 -11.71875 L 12.359375 0 L 9.765625 0 L 7.703125 -7.5625 L 7.53125 -7.5625 Z M 5.59375 0 "/></g></g></g><g fill="#ac6ad6" fill-opacity="1"><g transform="translate(34.832646, 17.844589)"><g><path d="M 5.71875 0.171875 C 4.769531 0.171875 3.941406 -0.0390625 3.234375 -0.46875 C 2.523438 -0.894531 1.972656 -1.554688 1.578125 -2.453125 C 1.179688 -3.347656 0.984375 -4.484375 0.984375 -5.859375 C 0.984375 -7.234375 1.179688 -8.367188 1.578125 -9.265625 C 1.972656 -10.160156 2.523438 -10.820312 3.234375 -11.25 C 3.941406 -11.675781 4.769531 -11.890625 5.71875 -11.890625 C 6.6875 -11.890625 7.523438 -11.675781 8.234375 -11.25 C 8.941406 -10.820312 9.488281 -10.160156 9.875 -9.265625 C 10.269531 -8.367188 10.46875 -7.234375 10.46875 -5.859375 C 10.46875 -4.484375 10.269531 -3.347656 9.875 -2.453125 C 9.488281 -1.554688 8.941406 -0.894531 8.234375 -0.46875 C 7.523438 -0.0390625 6.6875 0.171875 5.71875 0.171875 Z M 5.71875 -1.796875 C 6.25 -1.796875 6.6875 -1.921875 7.03125 -2.171875 C 7.382812 -2.429688 7.65625 -2.859375 7.84375 -3.453125 C 8.039062 -4.054688 8.140625 -4.859375 8.140625 -5.859375 C 8.140625 -6.867188 8.039062 -7.671875 7.84375 -8.265625 C 7.65625 -8.867188 7.382812 -9.296875 7.03125 -9.546875 C 6.6875 -9.796875 6.25 -9.921875 5.71875 -9.921875 C 5.195312 -9.921875 4.757812 -9.796875 4.40625 -9.546875 C 4.050781 -9.296875 3.78125 -8.867188 3.59375 -8.265625 C 3.40625 -7.671875 3.3125 -6.867188 3.3125 -5.859375 C 3.3125 -4.859375 3.40625 -4.054688 3.59375 -3.453125 C 3.78125 -2.859375 4.050781 -2.429688 4.40625 -2.171875 C 4.757812 -1.921875 5.195312 -1.796875 5.71875 -1.796875 Z M 5.71875 -1.796875 "/></g></g></g><g fill="#ac6ad6" fill-opacity="1"><g transform="translate(46.291093, 17.844589)"><g/></g></g><g fill="#ac6ad6" fill-opacity="1"><g transform="translate(50.164009, 17.844589)"><g/></g></g><g fill="#ffc02b" fill-opacity="1"><g transform="translate(54.037496, 17.844589)"><g><path d="M 6.40625 0.171875 C 5.320312 0.171875 4.367188 -0.0507812 3.546875 -0.5 C 2.722656 -0.945312 2.078125 -1.617188 1.609375 -2.515625 C 1.148438 -3.421875 0.921875 -4.535156 0.921875 -5.859375 C 0.921875 -7.179688 1.148438 -8.289062 1.609375 -9.1875 C 2.078125 -10.09375 2.722656 -10.769531 3.546875 -11.21875 C 4.367188 -11.664062 5.320312 -11.890625 6.40625 -11.890625 C 7.53125 -11.890625 8.488281 -11.664062 9.28125 -11.21875 C 10.070312 -10.78125 10.632812 -10.113281 10.96875 -9.21875 L 9.28125 -8.171875 L 9.078125 -8.1875 C 8.828125 -8.789062 8.484375 -9.222656 8.046875 -9.484375 C 7.617188 -9.753906 7.070312 -9.890625 6.40625 -9.890625 C 5.4375 -9.890625 4.675781 -9.566406 4.125 -8.921875 C 3.582031 -8.285156 3.3125 -7.265625 3.3125 -5.859375 C 3.3125 -4.460938 3.582031 -3.441406 4.125 -2.796875 C 4.675781 -2.160156 5.4375 -1.84375 6.40625 -1.84375 C 7.925781 -1.84375 8.859375 -2.582031 9.203125 -4.0625 L 9.40625 -4.0625 L 11.109375 -3.171875 C 10.785156 -2.054688 10.238281 -1.21875 9.46875 -0.65625 C 8.695312 -0.101562 7.675781 0.171875 6.40625 0.171875 Z M 6.40625 0.171875 "/></g></g></g><g fill="#ffc02b" fill-opacity="1"><g transform="translate(65.535966, 17.844589)"><g><path d="M 9.09375 -7.3125 L 9.09375 -11.71875 L 11.40625 -11.71875 L 11.40625 0 L 9.09375 0 L 9.09375 -5.34375 L 3.84375 -5.34375 L 3.84375 0 L 1.53125 0 L 1.53125 -11.71875 L 3.84375 -11.71875 L 3.84375 -7.3125 Z M 9.09375 -7.3125 "/></g></g></g><g fill="#f37321" fill-opacity="1"><g transform="translate(78.470759, 17.844589)"><g><path d="M 11.25 0 L 8.8125 0 L 7.9375 -2.703125 L 3.4375 -2.703125 L 2.5625 0 L 0.171875 0 L 4.21875 -11.71875 L 7.203125 -11.71875 Z M 5.578125 -9.28125 L 4.0625 -4.65625 L 7.28125 -4.65625 L 5.765625 -9.28125 Z M 5.578125 -9.28125 "/></g></g></g><g fill="#f37321" fill-opacity="1"><g transform="translate(89.897062, 17.844589)"><g><path d="M 3.765625 0 L 1.53125 0 L 1.53125 -11.71875 L 4.171875 -11.71875 L 8.890625 -4.171875 L 9.09375 -4.203125 L 9.09375 -11.71875 L 11.328125 -11.71875 L 11.328125 0 L 8.953125 0 L 3.96875 -8.0625 L 3.765625 -8.03125 Z M 3.765625 0 "/></g></g></g><g clip-path="url(#5ca5ad90a5)"><path fill="#ff914d" d="M 54.40625 19.789062 L 62.859375 19.789062 L 62.859375 24.824219 L 54.40625 24.824219 Z M 54.40625 19.789062 " fill-opacity="1" fill-rule="nonzero"/></g><g clip-path="url(#7f561b8f2e)"><g clip-path="url(#dcfc6777a2)"><path fill="#ff914d" d="M 54.40625 19.789062 L 92.8125 19.789062 L 92.8125 24.824219 L 54.40625 24.824219 Z M 54.40625 19.789062 " fill-opacity="1" fill-rule="nonzero"/></g></g><g clip-path="url(#f3cb808376)"><g clip-path="url(#9f27471e7d)"><g clip-path="url(#4cc8ef9599)"><path fill="#ac6ad6" d="M 109.160156 3.316406 L 96.765625 33.863281 L 93.082031 32.367188 L 105.472656 1.820312 Z M 109.160156 3.316406 " fill-opacity="1" fill-rule="nonzero"/></g></g></g><g clip-path="url(#d52000cd9e)"><g clip-path="url(#27ec0fbdc4)"><g clip-path="url(#5a7732950d)"><path fill="#ac6ad6" d="M 115.652344 25.875 L 85.097656 13.503906 L 86.589844 9.816406 L 117.144531 22.1875 Z M 115.652344 25.875 " fill-opacity="1" fill-rule="nonzero"/></g></g></g><g clip-path="url(#269d2ce06d)"><g clip-path="url(#a913eb836f)"><path fill="#ffe787" d="M 55.199219 20.652344 L 79.972656 20.652344 L 79.972656 23.960938 L 55.199219 23.960938 Z M 55.199219 20.652344 " fill-opacity="1" fill-rule="nonzero"/></g></g><g clip-path="url(#331326a914)"><path fill="#ffe787" d="M 55.199219 20.652344 L 60.753906 20.652344 L 60.753906 23.960938 L 55.199219 23.960938 Z M 55.199219 20.652344 " fill-opacity="1" fill-rule="nonzero"/></g><g fill="#05aac8" fill-opacity="1"><g transform="translate(20.859106, 24.933629)"><g><path d="M 2.734375 0.09375 C 2.335938 0.09375 1.976562 0 1.65625 -0.1875 C 1.34375 -0.375 1.09375 -0.65625 0.90625 -1.03125 C 0.71875 -1.414062 0.625 -1.878906 0.625 -2.421875 C 0.625 -2.773438 0.664062 -3.15625 0.75 -3.5625 C 0.894531 -4.25 1.140625 -4.828125 1.484375 -5.296875 C 1.828125 -5.773438 2.25 -6.132812 2.75 -6.375 C 3.257812 -6.625 3.835938 -6.75 4.484375 -6.75 C 5.128906 -6.75 5.65625 -6.628906 6.0625 -6.390625 C 6.46875 -6.148438 6.722656 -5.796875 6.828125 -5.328125 L 5.765625 -4.78125 L 5.65625 -4.78125 C 5.570312 -5.070312 5.421875 -5.28125 5.203125 -5.40625 C 4.984375 -5.539062 4.6875 -5.609375 4.3125 -5.609375 C 3.738281 -5.609375 3.257812 -5.425781 2.875 -5.0625 C 2.5 -4.707031 2.222656 -4.128906 2.046875 -3.328125 C 1.984375 -3.003906 1.953125 -2.71875 1.953125 -2.46875 C 1.953125 -1.976562 2.066406 -1.613281 2.296875 -1.375 C 2.523438 -1.144531 2.84375 -1.03125 3.25 -1.03125 C 3.675781 -1.03125 4.039062 -1.140625 4.34375 -1.359375 C 4.644531 -1.585938 4.835938 -1.90625 4.921875 -2.3125 L 4.984375 -2.59375 L 3.40625 -2.59375 L 3.640625 -3.671875 L 6.515625 -3.671875 L 5.734375 0 L 4.484375 0 L 4.671875 -0.890625 L 4.578125 -0.90625 C 4.429688 -0.6875 4.28125 -0.503906 4.125 -0.359375 C 3.96875 -0.210938 3.773438 -0.0976562 3.546875 -0.015625 C 3.316406 0.0546875 3.046875 0.09375 2.734375 0.09375 Z M 2.734375 0.09375 "/></g></g></g><g fill="#05aac8" fill-opacity="1"><g transform="translate(27.791197, 24.933629)"><g><path d="M 0.1875 0 L 1.25 -5.015625 L 2.484375 -5.015625 L 2.3125 -4.265625 L 2.40625 -4.25 C 2.582031 -4.53125 2.78125 -4.734375 3 -4.859375 C 3.21875 -4.992188 3.476562 -5.0625 3.78125 -5.0625 C 3.914062 -5.0625 4.035156 -5.046875 4.140625 -5.015625 C 4.253906 -4.992188 4.335938 -4.960938 4.390625 -4.921875 L 3.984375 -3.8125 L 3.890625 -3.796875 C 3.722656 -3.867188 3.546875 -3.90625 3.359375 -3.90625 C 2.640625 -3.90625 2.171875 -3.382812 1.953125 -2.34375 L 1.453125 0 Z M 0.1875 0 "/></g></g></g><g fill="#05aac8" fill-opacity="1"><g transform="translate(31.72317, 24.933629)"><g><path d="M 2 0.09375 C 1.695312 0.09375 1.421875 0.0234375 1.171875 -0.109375 C 0.929688 -0.242188 0.738281 -0.453125 0.59375 -0.734375 C 0.445312 -1.015625 0.375 -1.359375 0.375 -1.765625 C 0.375 -2.035156 0.410156 -2.328125 0.484375 -2.640625 C 0.648438 -3.453125 0.953125 -4.066406 1.390625 -4.484375 C 1.835938 -4.898438 2.382812 -5.109375 3.03125 -5.109375 C 3.34375 -5.109375 3.613281 -5.050781 3.84375 -4.9375 C 4.070312 -4.832031 4.238281 -4.671875 4.34375 -4.453125 L 4.453125 -4.46875 L 4.5625 -5.015625 L 5.828125 -5.015625 L 4.75 0 L 3.5 0 L 3.640625 -0.65625 L 3.546875 -0.671875 C 3.347656 -0.421875 3.125 -0.226562 2.875 -0.09375 C 2.625 0.03125 2.332031 0.09375 2 0.09375 Z M 2.5625 -0.96875 C 2.914062 -0.96875 3.222656 -1.085938 3.484375 -1.328125 C 3.742188 -1.578125 3.921875 -1.941406 4.015625 -2.421875 C 4.066406 -2.640625 4.09375 -2.832031 4.09375 -3 C 4.09375 -3.34375 4.007812 -3.601562 3.84375 -3.78125 C 3.6875 -3.957031 3.476562 -4.046875 3.21875 -4.046875 C 2.84375 -4.046875 2.53125 -3.925781 2.28125 -3.6875 C 2.039062 -3.445312 1.867188 -3.078125 1.765625 -2.578125 C 1.710938 -2.359375 1.6875 -2.160156 1.6875 -1.984375 C 1.6875 -1.648438 1.757812 -1.394531 1.90625 -1.21875 C 2.0625 -1.050781 2.28125 -0.96875 2.5625 -0.96875 Z M 2.5625 -0.96875 "/></g></g></g><g fill="#05aac8" fill-opacity="1"><g transform="translate(37.732497, 24.933629)"><g><path d="M 2.0625 0.09375 C 1.738281 0.09375 1.453125 0.0234375 1.203125 -0.109375 C 0.953125 -0.242188 0.753906 -0.453125 0.609375 -0.734375 C 0.460938 -1.015625 0.390625 -1.363281 0.390625 -1.78125 C 0.390625 -2.0625 0.425781 -2.375 0.5 -2.71875 C 0.664062 -3.5 0.96875 -4.09375 1.40625 -4.5 C 1.84375 -4.90625 2.394531 -5.109375 3.0625 -5.109375 C 3.375 -5.109375 3.632812 -5.046875 3.84375 -4.921875 C 4.050781 -4.804688 4.21875 -4.632812 4.34375 -4.40625 L 4.4375 -4.4375 L 5 -7.03125 L 6.25 -7.03125 L 4.75 0 L 3.5 0 L 3.625 -0.609375 L 3.53125 -0.625 C 3.351562 -0.382812 3.148438 -0.203125 2.921875 -0.078125 C 2.703125 0.0351562 2.414062 0.09375 2.0625 0.09375 Z M 2.578125 -0.96875 C 2.929688 -0.96875 3.234375 -1.082031 3.484375 -1.3125 C 3.734375 -1.550781 3.910156 -1.921875 4.015625 -2.421875 C 4.066406 -2.628906 4.09375 -2.816406 4.09375 -2.984375 C 4.09375 -3.335938 4.007812 -3.601562 3.84375 -3.78125 C 3.675781 -3.957031 3.460938 -4.046875 3.203125 -4.046875 C 2.835938 -4.046875 2.53125 -3.921875 2.28125 -3.671875 C 2.039062 -3.429688 1.867188 -3.070312 1.765625 -2.59375 C 1.710938 -2.375 1.6875 -2.171875 1.6875 -1.984375 C 1.6875 -1.640625 1.765625 -1.382812 1.921875 -1.21875 C 2.085938 -1.050781 2.304688 -0.96875 2.578125 -0.96875 Z M 2.578125 -0.96875 "/></g></g></g><g fill="#05aac8" fill-opacity="1"><g transform="translate(43.741824, 24.933629)"><g><path d="M 5.109375 -3.5 C 4.984375 -2.945312 4.675781 -2.546875 4.1875 -2.296875 C 3.695312 -2.054688 3.097656 -1.9375 2.390625 -1.9375 C 2.140625 -1.9375 1.90625 -1.945312 1.6875 -1.96875 C 1.695312 -1.632812 1.785156 -1.382812 1.953125 -1.21875 C 2.117188 -1.050781 2.347656 -0.96875 2.640625 -0.96875 C 2.921875 -0.96875 3.148438 -1.019531 3.328125 -1.125 C 3.515625 -1.238281 3.679688 -1.410156 3.828125 -1.640625 L 3.921875 -1.640625 L 4.734375 -1.09375 C 4.578125 -0.84375 4.40625 -0.628906 4.21875 -0.453125 C 4.03125 -0.285156 3.789062 -0.148438 3.5 -0.046875 C 3.207031 0.046875 2.847656 0.09375 2.421875 0.09375 C 2.035156 0.09375 1.691406 0.0078125 1.390625 -0.15625 C 1.085938 -0.320312 0.847656 -0.5625 0.671875 -0.875 C 0.503906 -1.1875 0.421875 -1.5625 0.421875 -2 C 0.421875 -2.25 0.453125 -2.507812 0.515625 -2.78125 C 0.609375 -3.269531 0.796875 -3.6875 1.078125 -4.03125 C 1.359375 -4.382812 1.691406 -4.648438 2.078125 -4.828125 C 2.472656 -5.015625 2.894531 -5.109375 3.34375 -5.109375 C 3.726562 -5.109375 4.050781 -5.050781 4.3125 -4.9375 C 4.582031 -4.820312 4.785156 -4.660156 4.921875 -4.453125 C 5.066406 -4.253906 5.140625 -4.03125 5.140625 -3.78125 C 5.140625 -3.6875 5.128906 -3.59375 5.109375 -3.5 Z M 3.234375 -4.140625 C 3.035156 -4.140625 2.84375 -4.09375 2.65625 -4 C 2.476562 -3.914062 2.3125 -3.785156 2.15625 -3.609375 C 2.007812 -3.429688 1.898438 -3.207031 1.828125 -2.9375 C 2.054688 -2.925781 2.273438 -2.921875 2.484375 -2.921875 C 2.898438 -2.921875 3.226562 -2.96875 3.46875 -3.0625 C 3.71875 -3.164062 3.867188 -3.347656 3.921875 -3.609375 C 3.921875 -3.648438 3.921875 -3.679688 3.921875 -3.703125 C 3.921875 -3.828125 3.859375 -3.929688 3.734375 -4.015625 C 3.617188 -4.097656 3.453125 -4.140625 3.234375 -4.140625 Z M 3.234375 -4.140625 "/></g></g></g><g fill="#05aac8" fill-opacity="1"><g transform="translate(49.192038, 24.933629)"><g><path d="M 0.1875 0 L 1.25 -5.015625 L 2.484375 -5.015625 L 2.3125 -4.265625 L 2.40625 -4.25 C 2.582031 -4.53125 2.78125 -4.734375 3 -4.859375 C 3.21875 -4.992188 3.476562 -5.0625 3.78125 -5.0625 C 3.914062 -5.0625 4.035156 -5.046875 4.140625 -5.015625 C 4.253906 -4.992188 4.335938 -4.960938 4.390625 -4.921875 L 3.984375 -3.8125 L 3.890625 -3.796875 C 3.722656 -3.867188 3.546875 -3.90625 3.359375 -3.90625 C 2.640625 -3.90625 2.171875 -3.382812 1.953125 -2.34375 L 1.453125 0 Z M 0.1875 0 "/></g></g></g><g clip-path="url(#5b98d8a684)"><path fill="#ac6ad6" d="M 50.351562 6.074219 L 52.703125 6.074219 L 52.703125 17.839844 L 50.351562 17.839844 Z M 50.351562 6.074219 " fill-opacity="1" fill-rule="nonzero"/></g><g clip-path="url(#886fd78159)"><g clip-path="url(#cd84b2a298)"><path fill="#ac6ad6" d="M 50.335938 6.078125 L 51.851562 7.875 L 48.222656 10.941406 L 46.703125 9.144531 Z M 50.335938 6.078125 " fill-opacity="1" fill-rule="nonzero"/></g></g><g clip-path="url(#a069988b10)"><path fill="#f37321" d="M 91.453125 7.886719 L 93.644531 7.886719 L 93.644531 17.371094 L 91.453125 17.371094 Z M 91.453125 7.886719 " fill-opacity="1" fill-rule="nonzero"/></g><g clip-path="url(#34a3626e50)"><g clip-path="url(#fdda93c194)"><g clip-path="url(#4b7bb8af24)"><path fill="#ffffff" d="M 104.28125 12.125 L 99.40625 24.152344 L 97.953125 23.5625 L 102.832031 11.539062 Z M 104.28125 12.125 " fill-opacity="1" fill-rule="nonzero"/></g></g></g><g clip-path="url(#66dd5be98a)"><g clip-path="url(#e1fc9eb6da)"><g clip-path="url(#ce3ff6bc0d)"><path fill="#ffffff" d="M 106.839844 21.007812 L 94.8125 16.136719 L 95.398438 14.683594 L 107.425781 19.554688 Z M 106.839844 21.007812 " fill-opacity="1" fill-rule="nonzero"/></g></g></g></svg>